
<global>
amp_veltrack=0
ampeg_release=0.85
</global>

<group>
group_label=RR1_85-127
lpc_hicc1=127
lpc_locc1=85
seq_length=4
seq_position=1

<region>
hikey=g#4
hivel=127
lokey=g4
lovel=1
lpc=ltrDQiy0mcPo8rBDuZ4Lw9QvIMJBv0xBFQ6VQnYspcJSPOpBgtcAQuMracICjjNBjI9cQlxdO8L2/v/AKfnNQT16vcEgQRBC595Iwae4HMKAMS1CouqVwIHlhsEAIAxB
lpc_rms=-27.52
offset=1136
pitch_keycenter=g#4
sample=SoloCello_pizzicato_FF_G#4_RR1.opus
</region>

<region>
hikey=g#3
hivel=127
lokey=g3
lovel=1
lpc=b7AtQ9fO4cNqw6NDOLUOQluitcIOmYjAlIYCQr3lrMLk4JhCAH7rwA4s40HjuIHC2vpjQv6xCsLy+xLCgKiwQipjI8IQf8bBlGx3QqdJWsKvwRNAEqvGQQfbbcGl1F1A
lpc_rms=-28.56
pitch_keycenter=g#3
sample=SoloCello_pizzicato_FF_G#3_RR1.opus
</region>

<region>
hikey=g#2
hivel=127
lokey=g2
lovel=1
lpc=SgutQxsSZcQFCyREQ9cHQoEuAEGNnjnD48erweCAwkLrD1zCw03QQl9IKMI3LRLC492wwZCnH0HeijVCFujqwBhC38DshHvBKjSqP/2K3sGlSIhCs34xwTmzMcIjVbFB
lpc_rms=-26.25
pitch_keycenter=g#2
sample=SoloCello_pizzicato_FF_G#2_RR1.opus
</region>

<region>
hikey=f#4
hivel=127
lokey=f4
lovel=1
lpc=U2XAQoz8nsOa975DJ6Agw7wuNMHgJT3CPVvTQps8KMIfL/BANSFswp+gpkJTpXnCO1+aQr1Q28LoYaxCgMz0wUK9HkGno3nB/KndQEgLg0EYL/jBBXTmQU/UhMHU8ZVA
lpc_rms=-30.69
pitch_keycenter=f#4
sample=SoloCello_pizzicato_FF_F#4_RR1.opus
</region>

<region>
hikey=f#3
hivel=127
lokey=f3
lovel=1
lpc=+Zr+QmWrn8P1p3RDF7oowhSmX8CfbgxAwZFIQA+iF8KUm0pBawbAQfiilUD2xMDBLsUyQEe9HUGhnA3BcTaCQQYb5sH12yFCxBu0wVAsIMFIAWA+UGx1QZX718DtMCA/
lpc_rms=-28.57
pitch_keycenter=f#3
sample=SoloCello_pizzicato_FF_F#3_RR1.opus
</region>

<region>
hikey=f#2
hivel=127
lokey=f2
lovel=1
lpc=XPFsQ+2XHcS2ZwFEbuIIw187/kI+rSbD/w+lQhaU8sKVGv1CJ3Z4wsh9vEKmeonCmhj/wCwENsDEdpXAuouDQV1ZJkGV4zrAjuNRwGc6UMHZ1T1AuF+EQbw3fMFcXK1A
lpc_rms=-30.45
pitch_keycenter=f#2
sample=SoloCello_pizzicato_FF_F#2_RR1.opus
</region>

<region>
hikey=B6
hivel=127
lokey=d#5
lovel=1
lpc=R/ZlQqV9O8NoundDncMfw7EiCUJk9+xBvDUPwkPtMUG7PppB/tLxwUb7t0FHMZ7BjSeuQYKYZMEiZro/u0u4QXOhaMKa+X1C3RwHwqwgZUFJI+nAxjcAwSU3akFx+LvA
lpc_rms=-34.03
pitch_keycenter=E5
sample=SoloCello_pizzicato_FF_E5_RR1.opus
</region>

<region>
hikey=e4
hivel=127
lokey=d#4
lovel=1
lpc=ohcZQ2Zs98N3sBdEK5ysw7eKGEOjwTbDLXYlQ+mWgsLbyj9CF+OdwifQJ0LcAutAONSGQerjcMKlOw5CT0vyQTJtLsL5RLfAlzq4QRx5pUHaJw7B5baKwh1YoUIUK9TB
lpc_rms=-30.10
pitch_keycenter=e4
sample=SoloCello_pizzicato_FF_E4_RR1.opus
</region>

<region>
hikey=e3
hivel=127
lokey=d#3
lovel=1
lpc=jcFJQwZHC8QjHgpERCtbw2Yn/UEx1sLCsokdQwLghsKEmxlAzMQwwjIOiEL8jUXC+Yv2QVnQLkHbLlnCv49QQjQc0MCEU9vBCc/7QSUGxsHu/AdA5w3EQUOF78GNpkBB
lpc_rms=-27.37
pitch_keycenter=e3
sample=SoloCello_pizzicato_FF_E3_RR1.opus
</region>

<region>
hikey=e2
hivel=127
lokey=d#2
lovel=1
lpc=mYRyQ5twH8RH9uFD+dz8QbcQO8HglL7CuZxswc8zPUG+bR/BTRhBQsdqHkJQ+5fCxsQiQWFH/j+biwRB14vAQBt4BcFXlYFAAg8zwF21gkHIEBvCgj3bQUspKsAvsNu/
lpc_rms=-35.08
pitch_keycenter=e2
sample=SoloCello_pizzicato_FF_E2_RR1.opus
</region>

<region>
hikey=d5
hivel=127
lokey=c#5
lovel=1
lpc=tsGHQm6mN8Pt3CRD1GxXwvV8GkKzB3bC+CoMQkoRnsHYf/NBV1wCwleM8kGVidrBhTfeQY7m+8Ee+I5BP2mTwA31d0EPk/TBrDQlQrogBcI/E4VBxAHfwfF5CULaI1PB
lpc_rms=-33.05
pitch_keycenter=d5
sample=SoloCello_pizzicato_FF_D5_RR1.opus
</region>

<region>
hikey=d4
hivel=127
lokey=c#4
lovel=1
lpc=2sfHQvGzo8OYSMdDRHhQwxg5gULOtovCGGMqQiexOkHSN0NBUnVHwskd1UFRrk0/2CRkQQ4c4cFjgYRAJy6NQbWH9763gq3BphCaQT6nwcAbWjLA/IW4QHUDTcCQZlg+
lpc_rms=-33.09
pitch_keycenter=d4
sample=SoloCello_pizzicato_FF_D4_RR1.opus
</region>

<region>
hikey=d3
hivel=127
lokey=c#3
lovel=1
lpc=7D2YQ+ssY8T7umNEm5OHw9BujMHLU+XCgZQQQ40lDcIaUinClVXKwFuK5UKA7ALDJBO2Qs6grMEi+ovCrDRDQjxVmMAoB3BC133bwSZRtsKU9o5ClU/0Qd8mSsIG+n9B
lpc_rms=-29.96
pitch_keycenter=d3
sample=SoloCello_pizzicato_FF_D3_RR1.opus
</region>

<region>
hikey=d2
hivel=127
lokey=c#2
lovel=1
lpc=IchoQxCyDsSQYalD4pCYQr52GELDY0TD46OEQhDME0LMex3CU9HIQXxg2cGwsWNCe2ZWwt8wSEGJhpJB0lCmPJMPL8I0c4tBaVTpQVyKPMH5i77AyPDSwePSO0LiJqHB
lpc_rms=-32.01
pitch_keycenter=d2
sample=SoloCello_pizzicato_FF_D2_RR1.opus
</region>

<region>
hikey=c5
hivel=127
lokey=b4
lovel=1
lpc=hamWQl0beMMAvaVDexZlw6jpsUKQn8PBI8GLQbS0zMFfmaZB9Q9sQF4bo8FOB9JAK6WbQbyG48H0NV1BCrJ6QejbCsK6hHVBUnGEQdwxDMAipUDC1IKUQu4vU8JgYoBB
lpc_rms=-29.97
pitch_keycenter=c5
sample=SoloCello_pizzicato_FF_C5_RR1.opus
</region>

<region>
hikey=c4
hivel=127
lokey=b3
lovel=1
lpc=pbDiQnbgs8NTY9VDgzVzw/a7CEMh/h3DAhrpQkTdScKfPHZCuXmowkb/fkLVhjrCBXFRQgfkMMILJH5BC69AwW9DG0IZyEbCSNcaQiqd/8HSCw9CubgRwsyov0HY1unA
lpc_rms=-27.95
pitch_keycenter=c4
sample=SoloCello_pizzicato_FF_C4_RR1.opus
</region>

<region>
hikey=c3
hivel=127
lokey=b2
lovel=1
lpc=ImKSQzATUMR+Dz5E1ZhUwymM2UI/PEDDlBtdQuJxkMFTasNCzXf4wizYBUPHSfHCMjMRQ8sXDcOlMvXBVacHQ3Yy5sFcXoPC/B2LQlP0mMLvKpBCt7KgwUzavsGID31B
lpc_rms=-29.49
pitch_keycenter=c3
sample=SoloCello_pizzicato_FF_C3_RR1.opus
</region>

<region>
hivel=127
key=c2
lovel=1
lpc=QeyuQ/LWW8QxUQFEgEwKQ4Z0PUKKMTLD0Q11wtpCGkLdXbHBH5wtQkVSJELr9AdBoJUDwq4IdcK/LZFCc67zQBL6oMIJP3lChuqtwfQ+EkLyfufBLufSQP3VfcGzakdB
lpc_rms=-29.21
sample=SoloCello_pizzicato_FF_C2_RR1.opus
</region>

<region>
hikey=a#4
hivel=127
lokey=a4
lovel=1
lpc=apkiQrtLAsOvMiBD1+OowliKXEEMjB/Bj4CvQfGG38GNZxNCKqP9wR45ikFP7lzB+apuQV6Yg8HE+qlBfGKSwRAPM0ENVKvBLrQMQiOHusE7x69AbGWqwKHU4ECmiRPA
lpc_rms=-36.85
pitch_keycenter=a#4
sample=SoloCello_pizzicato_FF_A#4_RR1.opus
</region>

<region>
hikey=a#3
hivel=127
lokey=a3
lovel=1
lpc=tUR1Q7BzKMQvfQ9EkmKNwq4iPsK6qlTClarGwUzbjEI7UATC6e5FQlD0SMJiKnRBR2XIQIizLMJy6CxCqT7zQdSkTMIwzIVBFl5Vwmju1EIMwYjCiniLQFyoN0EI0EzA
lpc_rms=-25.89
pitch_keycenter=a#3
sample=SoloCello_pizzicato_FF_A#3_RR1.opus
</region>

<region>
hikey=a#2
hivel=127
lokey=a2
lovel=1
lpc=qT/JQ8F5ncThArBE1O0XxK34R0KZwpLBvY0oQurydcK6psFCL6/fwrpuokIl1pvBvP49QsZp3cLRtABD5aABw9t5UkIx/QpCQkP/Qc1EHMMr+wpDKgMcwUrsY8IAU9hB
lpc_rms=-26.49
pitch_keycenter=a#2
sample=SoloCello_pizzicato_FF_A#2_RR1.opus
</region>
</group>

<group>
group_label=RR1_0-42
lpc_hicc1=42
lpc_locc1=0
seq_length=4
seq_position=1

<region>
hikey=g#4
hivel=127
lokey=g4
lovel=1
lpc=4KC5Qg04ZMMrTU9D4TO4wpZXNUKBl17C3gpyQr/3bMKCPpRCZ6GUwpknN0KRtJzBoeuUwAXoykFjy6DBTzhRwE6hH0GE3+A+lB0twE6KicAl5ylBwuC/wB+RQMBmvI5A
lpc_rms=-51.02
pitch_keycenter=g#4
sample=SoloCello_pizzicato_PP_G#4_RR1.opus
volume=6.0
</region>

<region>
hikey=g#3
hivel=127
lokey=g3
lovel=1
lpc=wyZNQosm68JZOadCkG2rwXalk0HqFInB8HjPQNvTMMHzAkpB/1kUwTtYI0DudNZATzCZwLeh+D+UEP3AA6XiQJWNhMCvgg5BjK84wa4LmT8dAUZB105vwLDvbMH4eCpB
lpc_rms=-59.85
offset=16667
pitch_keycenter=g#3
sample=SoloCello_pizzicato_PP_G#3_RR1.opus
volume=6.0
</region>

<region>
hikey=g#2
hivel=127
lokey=g2
lovel=1
lpc=Gq14QtN/28KzzhxC04EXQUcCpED04/LA4QdSP+tPCcB/VM29pruZP/xVkUB7V9i/quyuv1lwjj++R8u/ysEawFykFUCa8uQ/vb7eP7JaRsCIlOg/2vRzwO2/jb5rVSxA
lpc_rms=-57.01
offset=13311
pitch_keycenter=g#2
sample=SoloCello_pizzicato_PP_G#2_RR1.opus
volume=6.0
</region>

<region>
hikey=f#4
hivel=127
lokey=f4
lovel=1
lpc=L1P4QQpZe8LtpxpCdHTDwGuts0D6vwLBagI2wB1o4UCyi6Q/3XUnwG/sGMDISwZAcCknQKtOecCXWTa+EsiNQMUbk7/GZQjAPOlTwIdA2r//SBZBHm2+P3kPO8Eu19xA
lpc_rms=-61.67
offset=14403
pitch_keycenter=f#4
sample=SoloCello_pizzicato_PP_F#4_RR1.opus
volume=6.0
</region>

<region>
hikey=f#3
hivel=127
lokey=f3
lovel=1
lpc=AWYDQs6DZsJ7fatBiPN9QFeTUUCbsC/ApVZRwBJdV77WFJ8+YuTWP82ZAj+M1+Q8/Phkvz6y+75CBRU/nSTGP/BBBj+Rdp+/RUIIP6WZ2j7wmWk/zXamv1+O1L+Kuos/
lpc_rms=-63.66
offset=14071
pitch_keycenter=f#3
sample=SoloCello_pizzicato_PP_F#3_RR1.opus
volume=6.0
</region>

<region>
hikey=f#2
hivel=127
lokey=f2
lovel=1
lpc=ce9tQqfis8KqKItBGEm4QP9cPEHPVRXAA2PqvxsrqsBItYe/aCkFQDiYpz+ORlJA7OUfvwHhEUCBaCvAq1vcPlUAK79tk+M+16GbQIZXL8D4h90+2KEdwAWpJb/csWw/
lpc_rms=-59.88
offset=14888
pitch_keycenter=f#2
sample=SoloCello_pizzicato_PP_F#2_RR1.opus
volume=6.0
</region>

<region>
hikey=B6
hivel=127
lokey=d#5
lovel=1
lpc=n9ZkQQnEB8Lt4+ZB/wYiwcSCeUCRn7PA/c6BQK4D579BvQlAY1o6wEKOUUDiHIfAmcrAQKfpmsBDUeU/1w3mv8sU7D+R7cE+eruFPs4QWsBqPlhAvb4EvmRfUr8yZ/E8
lpc_rms=-67.14
offset=11253
pitch_keycenter=E5
sample=SoloCello_pizzicato_PP_E5_RR1.opus
volume=6.0
</region>

<region>
hikey=e4
hivel=127
lokey=d#4
lovel=1
lpc=bCcpQopIucIofYhCbBe3wdO3V0GqonTB7+UKQdZFDsF+ekpBGG/7wKei00Ci6nzADq0BwIX62kCpEAHBh5QRQcldKcFbYLdA2RU1vzFRY8BIwZpAYFIoP10+tMB5pHVA
lpc_rms=-61.47
offset=13546
pitch_keycenter=e4
sample=SoloCello_pizzicato_PP_E4_RR1.opus
volume=6.0
</region>

<region>
hikey=e3
hivel=127
lokey=d#3
lovel=1
lpc=YQ6OQjjc+8KASzlCHdckQYQx3kDBXhTBPUOPwNdywj+N0Sc/pceBP6xN/j0gk9Y/G4skQBeVN8B/RoS/4DuJv/AucEB2QShAHqbvPzzq2sBmuU6/keyVP4L7xj9YaAW/
lpc_rms=-56.84
offset=11214
pitch_keycenter=e3
sample=SoloCello_pizzicato_PP_E3_RR1.opus
volume=6.0
</region>

<region>
hikey=e2
hivel=127
lokey=d#2
lovel=1
lpc=rtxfQlLG0MI1dENC+di0wGk7REEhlJ/As9inwLIQR7+Gp4lA1np9wKVSRz86TtBAWjCEvkQU+L9XVlG+sCJJPzdwhsD8Deo+LjWjQIGtT8ATf4k+AHaYvxYXNMDQwHVA
lpc_rms=-64.07
offset=11829
pitch_keycenter=e2
sample=SoloCello_pizzicato_PP_E2_RR1.opus
volume=6.0
</region>

<region>
hikey=d5
hivel=127
lokey=c#5
lovel=1
lpc=s9y7QbkkY8JIbUdC3ljCwZmNeEFiUhrBp22UQHcc6cAFIAZBEg7Sv1awtMBJGaNAJ1ZfwISr1UASCvDABob5QPW26sB4RBJAMhmLvjNLvT+N0Dw/MQiVwNkExkBhyDbA
lpc_rms=-62.44
offset=10096
pitch_keycenter=d5
sample=SoloCello_pizzicato_PP_D5_RR1.opus
volume=6.0
</region>

<region>
hikey=d4
hivel=127
lokey=c#4
lovel=1
lpc=EydxQahI6MFotmpBHiJ7P4FvBz+9qxbAqFkhvu+ZEj3bK4W+IIl/P7DZPr46RsQ9ejtVvyQNsT78qOs+FujWP/pELr84Qoe/xMLCPkUvsb6B7rM+WpcCv21QUb1VaJM+
lpc_rms=-69.01
offset=16576
pitch_keycenter=d4
sample=SoloCello_pizzicato_PP_D4_RR1.opus
volume=6.0
</region>

<region>
hikey=d3
hivel=127
lokey=c#3
lovel=1
lpc=T7JJQkhwqsIqBARCzYqdwNxkCUEY7lY/dMJewISthj0l0YDAetzqvyVksUAVyYpAHWGDwHsuej+liZC/+ZY6QKU8Zb4Tt0jAZIa7QP4i57/fDxu/7y3YwG9gy0DmQLe/
lpc_rms=-58.79
offset=15425
pitch_keycenter=d3
sample=SoloCello_pizzicato_PP_D3_RR1.opus
volume=6.0
</region>

<region>
hikey=d2
hivel=127
lokey=c#2
lovel=1
lpc=rtQCQq39PcKf8w9B339XP6+N8ECoVtG/SCyBv561qL/9RcC/zbQbv7PYjT9JsiFA5LiiP+z5gD8m2QTAmCYmvdZa4b/TT64/LRIgQDjE5L4CRXy/UhCMv0Anzb9ZIvo/
lpc_rms=-65.44
offset=11577
pitch_keycenter=d2
sample=SoloCello_pizzicato_PP_D2_RR1.opus
volume=6.0
</region>

<region>
hikey=c5
hivel=127
lokey=b4
lovel=1
lpc=2ECOQQqaEMJe4r9BWCejwHS3Rz+F6B3A1osVQJaAKcDH3Io/UTwZQA4pLz9jS5/AQraUQIIvdMDSRJVA4E6GwP4Apz+srGVAAbJBwDjkT7/v/KK+k7UsQPvSYcBQQQhA
lpc_rms=-64.65
offset=14823
pitch_keycenter=c5
sample=SoloCello_pizzicato_PP_C5_RR1.opus
volume=6.0
</region>

<region>
hikey=c4
hivel=127
lokey=b3
lovel=1
lpc=vbzGQYAmNMIOHYlB9cQdQFCLnkCNSxzAp/YAwDHfaL+4VDM/a6Kdv9HS2j/UspA/SUy/v5/D8z5t9bg+3fuFPsP+lL+BqQA/J6FQP3eiEsD8Cg1Ai6+6ve+ZDsAT8t4/
lpc_rms=-64.51
offset=13078
pitch_keycenter=c4
sample=SoloCello_pizzicato_PP_C4_RR1.opus
volume=6.0
</region>

<region>
hikey=c3
hivel=127
lokey=b2
lovel=1
lpc=cen0QfIoVMLuG7RBf/q7PgV7+D/p7RDAKdqKufGSOb+JP6i/2bU5P6nosD7EiJA+Gl2kvvK/HT9720k+hvBnP/Jjrr9kyJ49BzOiPzYJeD7nU2S/uCmRvxBcEUAI4n6/
lpc_rms=-63.90
offset=10495
pitch_keycenter=c3
sample=SoloCello_pizzicato_PP_C3_RR1.opus
volume=6.0
</region>

<region>
hivel=127
key=c2
lovel=1
lpc=NtBEQptgo8JfN95BEDIGvtiqwkAdh7K/5FUYQO2NH8CVPdy//nn8PhPcQD4aJwa/erygP6qmHkAYUYU+qP4NwJ2RHL+LMiM/vMgEQEognr90zZ2+gzdUv2ADQ8CMJ2VA
lpc_rms=-66.74
sample=SoloCello_pizzicato_PP_C2_RR1.opus
volume=6.0
</region>

<region>
hikey=a#4
hivel=127
lokey=a4
lovel=1
lpc=z99JQdPnuMEw8EJBnfkbvuidKz+3JFXAxO/GPMrzFz/xiSM/zTkYP7g/I7+RBMA+rDqbvtS3yD4br769prAXvQXWiL7DBvc8b9GcvoFHHT97tIM/CTWRvjy/N79LWfW7
lpc_rms=-70.42
offset=15142
pitch_keycenter=a#4
sample=SoloCello_pizzicato_PP_A#4_RR1.opus
volume=6.0
</region>

<region>
hikey=a#3
hivel=127
lokey=a3
lovel=1
lpc=yY+iQUEEGsKL84JBwA8VQFnsTUBOBpW/EAs8wL2lMr6Q6EO+gO2wvmjzRD+9r/o/ajFSv2i4cb7eXkG/NfoGPxpxQb+Tq0Q/k0OnPjJaBL9/Ek8/oqubv4xhIsCkt0NA
lpc_rms=-66.91
offset=9862
pitch_keycenter=a#3
sample=SoloCello_pizzicato_PP_A#3_RR1.opus
volume=6.0
</region>

<region>
hikey=a#2
hivel=127
lokey=a2
lovel=1
lpc=ob1kQupRy8IDFSVCiU2eQM8WJEC9+u/APTT+Pm2m+T9CzjDAvPhLv1Y4pj5B/b1AVEnbPye75T/FvJvAp4vWvciAfL8ZIS9A8+37P1brqsDyxaS/GfSsv7ll7D/kdQpA
lpc_rms=-58.77
offset=7316
pitch_keycenter=a#2
sample=SoloCello_pizzicato_PP_A#2_RR1.opus
volume=6.0
</region>
</group>

<group>
group_label=RR1_43-84
lpc_hicc1=84
lpc_locc1=43
seq_length=4
seq_position=1

<region>
hikey=g#4
hivel=127
lokey=g4
lovel=1
lpc=HvvbQgyPWMMJC9VCyNA/Qdp328DYqyvC8lQ4QjFHjkG0bUXCVy3SQYUNoEHpjpfBOuN6weNAKkHYmrpB714KwkLVGkEmu1ZBxGt6wTPGTT1Id59AgdqFv388AEEKzsDA
lpc_rms=-36.86
pitch_keycenter=g#4
sample=SoloCello_pizzicato_MF_G#4_RR1.opus
volume=-6.0
</region>

<region>
hikey=g#3
hivel=127
lokey=g3
lovel=1
lpc=WnNwQ+WDEMRx+cFD//8JwjUk/EHZ9ubBXhQowmf9AkHtHyNCpMhBwtoBkEHBHLS/1M7yQQx8asF1Zc4/f5+jwcuRecGxbb9BswZWQXxlTEEGsMzBQy56wVJRLkHdFb9A
lpc_rms=-36.34
pitch_keycenter=g#3
sample=SoloCello_pizzicato_MF_G#3_RR1.opus
volume=-6.0
</region>

<region>
hikey=g#2
hivel=127
lokey=g2
lovel=1
lpc=bPHtQ9Ypi8SAyxREA84iQ/XBDkJDThPDSPRwwiqjiMF21lVCKODIQchhJ0IxXU3C5PsLQgRNicLq9WdC+51JwqVyTEHLtYhAOeczQvKpR8JsmRfA4RPsQV+fp8EFxOdA
lpc_rms=-31.96
pitch_keycenter=g#2
sample=SoloCello_pizzicato_MF_G#2_RR1.opus
volume=-6.0
</region>

<region>
hikey=f#4
hivel=127
lokey=f4
lovel=1
lpc=82wSQ2dwmMOAeU9DlSfMwiueokIzynDB5DuewVNgqMHiCXhC1PQLwvvmUcHbJN1BWssuwV91kcF7oQJCkXgywiG8EkJB7rNAdYthwT8Mm8AXXCRBf0KGwfT8uEHIkzbB
lpc_rms=-34.11
pitch_keycenter=f#4
sample=SoloCello_pizzicato_MF_F#4_RR1.opus
volume=-6.0
</region>

<region>
hikey=f#3
hivel=127
lokey=f3
lovel=1
lpc=XhcVQztDqMPQtDJDolMvQlkrUUG1YDnCWtTKwdWSB79BFftB49sAwKxmwr8FcAfBxWXXPJBWG0GzjotAkmcAwOGmi8Ha74i/xAV1QWiTHUDxu1pAiNfnwAQOicE/pGpB
lpc_rms=-37.37
pitch_keycenter=f#3
sample=SoloCello_pizzicato_MF_F#3_RR1.opus
volume=-6.0
</region>

<region>
hikey=f#2
hivel=127
lokey=f2
lovel=1
lpc=BuCGQ/2wHcR5kqZDVVbpQt/3GUFEvObCe9sYwiKvGkLt5MxBWjViwW5UBELNRZXBGOWQP63hFcL5nK9BJjdlv/60iUG3KZxAfCYXwUHx08GH1ZtBNi4VwWBDikE+nvDA
lpc_rms=-36.70
pitch_keycenter=f#2
sample=SoloCello_pizzicato_MF_F#2_RR1.opus
volume=-6.0
</region>

<region>
hikey=B6
hivel=127
lokey=d#5
lovel=1
lpc=s5LaQbcvUsI/kMxBQgdPwOPvEEEyeIHAA+OJwBuarL4RDodAGPrqv2QNN79+6CDAkzqRQI3+KEBGc2rAEKKxQED+msB4ICHBCB1kQfJUF8B/NLg/ML2lwJK5asCwX6BA
lpc_rms=-48.15
offset=96
pitch_keycenter=E5
sample=SoloCello_pizzicato_MF_E5_RR1.opus
volume=-6.0
</region>

<region>
hikey=e4
hivel=127
lokey=d#4
lovel=1
lpc=XtgGQ1hPksPdNDJDWOabwYSIREI1zsjCGZuOQiaU/cELjzNAKvLwQeM9l8EH66q/u2AXwDqvXcFjkkJAjF6+QbUZPcDY16vAYPhwwW2V70BS+ZpAc5oVwDt9TEFfXSvB
lpc_rms=-38.54
pitch_keycenter=e4
sample=SoloCello_pizzicato_MF_E4_RR1.opus
volume=-6.0
</region>

<region>
hikey=e3
hivel=127
lokey=d#3
lovel=1
lpc=H4tbQ+dhAsRMjqFDC6kwQj7wtMHSL5vCo/djQVKkm0FExexBEgZNwjfJFUEE+PlBeqRTP8tuocH/8/bBz8gOQn6SYUFGAnrAyuaOQLCpGcLgxoNBy7yMP1lXKECpuSQ/
lpc_rms=-32.64
pitch_keycenter=e3
sample=SoloCello_pizzicato_MF_E3_RR1.opus
volume=-6.0
</region>

<region>
hikey=e2
hivel=127
lokey=d#2
lovel=1
lpc=Ks84Q7dYuMNrvgZDszxaQjPhKULVhfjB/Fq/wXjxOcFMvWxB07uFQAckK0ENFJHBuStHQY6sJMFqcG9BJggewSaJE0E2vyTBSwT1PzYsJD6PIljA4f6LvlXb2b88YZJA
lpc_rms=-37.12
offset=13786
pitch_keycenter=e2
sample=SoloCello_pizzicato_MF_E2_RR1.opus
volume=-6.0
</region>

<region>
hikey=d5
hivel=127
lokey=c#5
lovel=1
lpc=JB5OQpHUAMM27tpCfQQ9wmBHLULwV0XCVvkWQurG+MHz841Bvq3+wGtHlkEUfanBd/mZQdpM3sFmGstBiV6fwcXQVEFnAz4/+0azQP7HWsFobx4//1F5QMs8DEDeOATA
lpc_rms=-38.54
pitch_keycenter=d5
sample=SoloCello_pizzicato_MF_D5_RR1.opus
volume=-6.0
</region>

<region>
hikey=d4
hivel=127
lokey=c#4
lovel=1
lpc=4EGGQi+LDsO11KNCpS1Nwam5l0HC2DfBnRO+PybaIsH5HYFB5gFSwaxJCkGVmbPAaswkPxwDPsH2FhFCJAAUwnq9x0EZze7BaILrQWzuJMGm2yTAguTSQJxZ68DsGzxA
lpc_rms=-42.26
pitch_keycenter=d4
sample=SoloCello_pizzicato_MF_D4_RR1.opus
volume=-6.0
</region>

<region>
hikey=d3
hivel=127
lokey=c#3
lovel=1
lpc=tr6BQ/ehGsR4lcRDHA2awOTXzUEi8zrCmlIhwYmCyMEy+d1BVJGcwQrJHUL1NZTBrYZ2QAW+dsEw+6ZBFofawfhHeUGhgQVB5ChAQcDX2MFYdSU//31eQf7nn8FYWElB
lpc_rms=-36.80
pitch_keycenter=d3
sample=SoloCello_pizzicato_MF_D3_RR1.opus
volume=-6.0
</region>

<region>
hikey=d2
hivel=127
lokey=c#2
lovel=1
lpc=GqFZQ4Yj8sMyUWlDgiSAQjJSHEKMECTCO0omwvfWQsHeMqpAPp3zQA2GyUHp5wRAXozWQPczAsL9buFA8aQFwePKF0HrUYNAOFqfQLq5AcGkHs9AUONVwEgr5sDYPLhA
lpc_rms=-39.40
offset=9566
pitch_keycenter=d2
sample=SoloCello_pizzicato_MF_D2_RR1.opus
volume=-6.0
</region>

<region>
hikey=c5
hivel=127
lokey=b4
lovel=1
lpc=WiFYQtkICcOEKOBCGPvDwRUyl79ESIbAGc8zQGBFecETNc1B/w6+wVkAFkJxdDTCi6LIQRLCZsH895ZB7KP0wK99O8DZcFvB/LPTQdSyvMEi4wBCba7DwZMzAcCuCb1A
lpc_rms=-39.27
pitch_keycenter=c5
sample=SoloCello_pizzicato_MF_C5_RR1.opus
volume=-6.0
</region>

<region>
hikey=c4
hivel=127
lokey=b3
lovel=1
lpc=0oXmQnRpg8OHcx9D2bnjQWeX+cFL15nBTru2wWbTLkJK9iRAzmtDwLkVz8EhXaZBt5f3PzlpGsGMZp9AJw+qwHc/ZsCsRbxA20QwQRoaXsFhnADA3eJrQAe4AkG3gLbA
lpc_rms=-38.46
offset=5699
pitch_keycenter=c4
sample=SoloCello_pizzicato_MF_C4_RR1.opus
volume=-6.0
</region>

<region>
hikey=c3
hivel=127
lokey=b2
lovel=1
lpc=BVl1Q8f0CsQPGJtDvLAxQnktjUHHPJbC1wttwe0PzkH5oDtBD3i/wXsEy0HIWK/BtskBQmP89cFCxDFBj0wHwU30G0FF/BS/7qBHQXwNucEDOmxB+QPhQO2FEcJwuLhB
lpc_rms=-38.16
pitch_keycenter=c3
sample=SoloCello_pizzicato_MF_C3_RR1.opus
volume=-6.0
</region>

<region>
hivel=127
key=c2
lovel=1
lpc=wYuKQx8fBcSlqSFDbbG4Qv2yRkJmOm7BiEbFwf5EDcGoyvjAtMkdvwkcOkGq3tI/iGbTQGo4GcEsAk/A71OiwHyzBUBs64Y/avMiQT8JvD8/+Wy+vIsawTrbgsEHwJJB
lpc_rms=-34.68
sample=SoloCello_pizzicato_MF_C2_RR1.opus
volume=-6.0
</region>

<region>
hikey=a#4
hivel=127
lokey=a4
lovel=1
lpc=N/4QQu8vpcIXhVpCtnBPwBTT90ALAszBs00vQWD910CQg/vAv19bQAaGt7+I2CFBMo17wXM1bUBadPRAAVKnwNysXMCKtBlBbpnJwEMBsT8orfq/kpmWQCB9xcB04ENA
lpc_rms=-43.03
pitch_keycenter=a#4
sample=SoloCello_pizzicato_MF_A#4_RR1.opus
volume=-6.0
</region>

<region>
hikey=a#3
hivel=127
lokey=a3
lovel=1
lpc=EqhLQ5rh7MPUhJhDcEJaQTAOSEFeHLLCCBXiwUg7DkJHeo5CGuUYwlWBAsHTUR7CPmwQQhZAksBap4pBfGyFQPQR48GnpwS/2uxOQT8aBEEJTCPBxSyTQVUAGcIWjKpB
lpc_rms=-37.96
offset=5396
pitch_keycenter=a#3
sample=SoloCello_pizzicato_MF_A#3_RR1.opus
volume=-6.0
</region>

<region>
hikey=a#2
hivel=127
lokey=a2
lovel=1
lpc=IbGgQ0weNcTqj7NDhF6YQiR8yEKpvu7CwjMjwguu5UC//UxBCtZ1QHa9xUHWOxPCAEDbQabV8cGiXhJCG5A5wJNZe8EdNOzAgEuHQaInE8Lfv6hBw2EfQkkGOcIh/FhB
lpc_rms=-36.39
pitch_keycenter=a#2
sample=SoloCello_pizzicato_MF_A#2_RR1.opus
volume=-6.0
</region>
</group>

<group>
group_label=RR2_85-127
lpc_hicc1=127
lpc_locc1=85
seq_length=4
seq_position=2

<region>
hikey=g#4
hivel=127
lokey=g4
lovel=1
lpc=RAvPQmzYqMMr4N5Dtg6Ww2FAy0KWdw3Bg435wKtcqEFWVT/CuYJbQjRe0MFsUFHBYBIIQhZwFcKKsRRCUpMVwvMT+UGBENPByK4dQmW3GcLKMlhB4HXwPjLJCMDnneE/
lpc_rms=-26.79
pitch_keycenter=g#4
sample=SoloCello_pizzicato_FF_G#4_RR2.opus
</region>

<region>
hikey=g#3
hivel=127
lokey=g3
lovel=1
lpc=1LVHQ9wu8cMujntDnLP2Qvo+JMIvS4RAvkZewva6GcMiLU1DdWWZwuqwnkLpYSDC4h95P6TOSsIXcSlCPmYswhhksUIOzVrCx/46ws0HuUK1p8/Byvw0ws+tAUJv133A
lpc_rms=-28.34
pitch_keycenter=g#3
sample=SoloCello_pizzicato_FF_G#3_RR2.opus
</region>

<region>
hikey=g#2
hivel=127
lokey=g2
lovel=1
lpc=oMaaQ8g/RsSe2P1DQguKQm6ywUKEvIjDWzFQQqd2bkEmGnXCtjsHQ7kuBMITIyhCbCLkwjSZl0H8edVBPEuTvrqphkEBNP7APGPQwWVKrEEc05pB+lfMwb5xl8AnAg5B
lpc_rms=-26.22
pitch_keycenter=g#2
sample=SoloCello_pizzicato_FF_G#2_RR2.opus
</region>

<region>
hikey=f#4
hivel=127
lokey=f4
lovel=1
lpc=v8bLQv2SpcP5bMJDW/knwxdb60G1kO7CbRYuQ8ntxcI8gG1CN16uwuKkokKG01vCGLeDQsK/l8LmfzlCqOurwXqODEJEiDfCpbyoQbpIDL+d3qJB9LoQwrfXj0HeS8u/
lpc_rms=-30.13
pitch_keycenter=f#4
sample=SoloCello_pizzicato_FF_F#4_RR2.opus
</region>

<region>
hikey=f#3
hivel=127
lokey=f3
lovel=1
lpc=S0rIQrNMZ8PIcBlDWJ+lwXPxe0GvcRnB9yjawAhWgMHiUzFBcvGtwM1kukFFFhHB4uAywU4s8r9hQgZCrdMQwjOxsMC8OhZCs2itwck8NcGHp+xBqUGcwRIe2sBQLRBB
lpc_rms=-27.13
pitch_keycenter=f#3
sample=SoloCello_pizzicato_FF_F#3_RR2.opus
</region>

<region>
hikey=f#2
hivel=127
lokey=f2
lovel=1
lpc=gdhVQ/X3DsTH4+xDyub8wla4BkOMg0TD3jiXQticP8KqkGJCM2MywXwtbkLEa5LCs59twfgorEGcPUZBdaDPv81FB0EfH/nBrVO+QW8PGcF1N6JBW9kPwu+O0kELUs3A
lpc_rms=-29.59
pitch_keycenter=f#2
sample=SoloCello_pizzicato_FF_F#2_RR2.opus
</region>

<region>
hikey=B6
hivel=127
lokey=d#5
lovel=1
lpc=LLAcQllO+8KlqS5DVC4Sw9PMx0IblZPCcEdbQhrhMMLWEylC7TP3wQWQikEZwGjBwVBFQbWGPr88rkbBi9mfQfjk18Hh3gFCWVvEwbmmWkAA51FBXl5YwZ+c70A8pyHA
lpc_rms=-31.42
pitch_keycenter=E5
sample=SoloCello_pizzicato_FF_E5_RR2.opus
</region>

<region>
hikey=e4
hivel=127
lokey=d#4
lovel=1
lpc=n1CMQqHjNcPA5RlDCRYgwrwhrkFvGB7C1+zhQD5cO0GEvfG/W1A0QVOcqcEo2S5AMTsXQX4MzUBWZ9jBGnELQqyx1MFQco1APlvwQOn/LEDWBElADlLJwT99ukHx9sfA
lpc_rms=-27.39
pitch_keycenter=e4
sample=SoloCello_pizzicato_FF_E4_RR2.opus
</region>

<region>
hikey=e3
hivel=127
lokey=d#3
lovel=1
lpc=/lKHQwuhOMRNSiBE1nEYwwiBHkJlF+jCOe+bQo06oMKvKvlClCIKwxhZwkLndH1BwKRlwnCDNkEtVrm/8J9hQHj3g8G7meNBbFptQvWs48LSKQdBmpxtQu4dksGL0pPA
lpc_rms=-25.78
pitch_keycenter=e3
sample=SoloCello_pizzicato_FF_E3_RR2.opus
</region>

<region>
hikey=e2
hivel=127
lokey=d#2
lovel=1
lpc=9R53Q0tQJcRm+PVDAUIuwRjBc0INbTzDLWL/QX26FMLVn7tCc1m8wbDYPkK4L1bCPo2/wTl9KUFp45dB252iQE+pOkDnARvCw1QvQqDhi8Hx5aNATM6jwYGVukHVQ/LA
lpc_rms=-31.13
pitch_keycenter=e2
sample=SoloCello_pizzicato_FF_E2_RR2.opus
</region>

<region>
hikey=d5
hivel=127
lokey=c#5
lovel=1
lpc=acNdQhTqKsNWDllDwJMkw33q20LNwJjCV9gwQjxZj8EYoQA+PvMZQVNEFcHsR+1AtxThwK7xT8CsRJ1BWsLKwdvXgEFNsunAcE41QY+AGcGjeF5BtRkhwuKtKUIwvGPB
lpc_rms=-30.02
pitch_keycenter=d5
sample=SoloCello_pizzicato_FF_D5_RR2.opus
</region>

<region>
hikey=d4
hivel=127
lokey=c#4
lovel=1
lpc=Ccm6QhwwjcMIyZNDyinmwi8YQEJOIabC5zgHQt5iokHWFB5Ba7YNwhxyUEHCQK3AQhf/QZGSCsKapUjAuWFyQaIsb0ElMdvB2VuOQYbKr8FL5vxB9xOhwdHu8D+cL9g/
lpc_rms=-33.92
pitch_keycenter=d4
sample=SoloCello_pizzicato_FF_D4_RR2.opus
</region>

<region>
hikey=d3
hivel=127
lokey=c#3
lovel=1
lpc=U8iiQ3FhdsSS03RENR6Fwyj3mUFWOCvD1bImQlGOyEIn7oLCEyCdQt1zNcKT4bfCOWEGQ4W/lcKj3wtC9FbkQQcdrcLVC4dBXZ1kQrf1DMEqa3vCIV+5QtgZmsIcGtdB
lpc_rms=-28.92
pitch_keycenter=d3
sample=SoloCello_pizzicato_FF_D3_RR2.opus
</region>

<region>
hikey=d2
hivel=127
lokey=c#2
lovel=1
lpc=f4xgQ9jLEsQ4s91D+dtywlXgv0IzFCbDQZP6wGmMxkLBVQ3CCSNxwvnW80J9g7fC5H05QgTElcKPMr1CL7smwiOaAMJVjFlCq8ODwcxuCsHnLCRBvPAWwrQePkKo8ojB
lpc_rms=-32.50
pitch_keycenter=d2
sample=SoloCello_pizzicato_FF_D2_RR2.opus
</region>

<region>
hikey=c5
hivel=127
lokey=b4
lovel=1
lpc=19Z7QvFnTMPx1YRDCnstwzP2gULEtA7CtIlfQsGqnsKG+61CjFuQwjNdUELYOX3CoMC/QiL6v8JvPn9Ca1MYwulpq0GmPDvBSaFkQXM/4cBcgZrBRDwjQq1mDMIapkVB
lpc_rms=-27.88
pitch_keycenter=c5
sample=SoloCello_pizzicato_FF_C5_RR2.opus
</region>

<region>
hikey=c4
hivel=127
lokey=b3
lovel=1
lpc=Iz7ZQirYscOYv9ZDaehPwwvhuUEp60/BHf5oQYV3NsEoWixCq/gdwuEKjkC9jBXBSioKQv+CEcLTSPdB/lvtwfRvr0G869jB6XFsQkhvgcIvHqNBiKdeQR6vG8GkGPs+
lpc_rms=-28.29
pitch_keycenter=c4
sample=SoloCello_pizzicato_FF_C4_RR2.opus
</region>

<region>
hikey=c3
hivel=127
lokey=b2
lovel=1
lpc=m7GTQ1XZW8SVDmpER+3Yw++SAkNJ9SHCmJbKwiFOH0PdeO3BxK2wwtZtxkEtg4pCEVgDwuGnHcJTsmlCl4EDwna5IsIljZtCQ3qVwcDzAsKcCltCuQKiwr1OZ0IODE3B
lpc_rms=-27.97
pitch_keycenter=c3
sample=SoloCello_pizzicato_FF_C3_RR2.opus
</region>

<region>
hivel=127
key=c2
lovel=1
lpc=3WeiQ6l1RsSfn9VDE505Q0QJAsHR28TC5yJJw7b5N0Og1jjCkshoQpesAMIYBNxBFMiOwa/qwMACcw7BdgK9wbKgZ8FkortCZjMawmN4qEGHboPCVPO5wIvsg0L2cdjB
lpc_rms=-30.35
sample=SoloCello_pizzicato_FF_C2_RR2.opus
</region>

<region>
hikey=a#4
hivel=127
lokey=a4
lovel=1
lpc=tqESQoty3cIP5/dC02BOwokDvL08oXHB7SAYQksKFMJgE/5BSCMFwlEWEEK6Bu3B/MxcQZe5o78u+JC/DFrLwOkZakGYPUTBr3qMQK8Dob8s7opAlwq4wDYt8D+fpwM/
lpc_rms=-37.00
pitch_keycenter=a#4
sample=SoloCello_pizzicato_FF_A#4_RR2.opus
</region>

<region>
hikey=a#3
hivel=127
lokey=a3
lovel=1
lpc=LkVyQ/5GIMTS5PVDmkxjP8uJUsIuyGHCBoCLwrm32EK6hKxAD4EDwqJBCMEJUjlB2tGhQZvOmsFK8SHCfq6EQpRfwUCNlpjCyLpPQrPSh8B34gtCtXuswvYQgkJiDoHB
lpc_rms=-25.84
pitch_keycenter=a#3
sample=SoloCello_pizzicato_FF_A#3_RR2.opus
</region>

<region>
hikey=a#2
hivel=127
lokey=a2
lovel=1
lpc=iXPMQ5iWn8RA7K5E4KkSxAew8UJfzgrDi4W6QgGuqMIJoepCni4uw4ltf0NDmsTCpqppwpfAWsLAiLtCzk/xv5923MGyuDNCPCeFQEPW28LGbXRCHBaHQh/plsIp8KNB
lpc_rms=-25.21
pitch_keycenter=a#2
sample=SoloCello_pizzicato_FF_A#2_RR2.opus
</region>
</group>

<group>
group_label=RR2_0-42
lpc_hicc1=42
lpc_locc1=0
seq_length=4
seq_position=2

<region>
hikey=g#4
hivel=127
lokey=g4
lovel=1
lpc=VNRhQkUf/cKFcNJCX6IxwhUIbkGqBCjA0eAewbO3y0DduQVBtdVbwT4Zh0Cung5BVVndwEvSPsB0CqZAi3C0wJvivkAYBr7AhhcKQajlsb/IVWXA62lXQEKPLsBiIQQ/
lpc_rms=-59.33
offset=13118
pitch_keycenter=g#4
sample=SoloCello_pizzicato_PP_G#4_RR2.opus
volume=6.0
</region>

<region>
hikey=g#3
hivel=127
lokey=g3
lovel=1
lpc=vDVOQqnr48JXbpFCUOHjwFNgvkAJPlDBV6/IQOUpk8AjablAhp0VweXOe78GEYRB/wdfwe2VN0EIglHBXwHfQJ8kvcDq/cVAvHI6QKpD/cAopw5BrWZ7wJK5tsA3H5RA
lpc_rms=-61.42
offset=14320
pitch_keycenter=g#3
sample=SoloCello_pizzicato_PP_G#3_RR2.opus
volume=6.0
</region>

<region>
hikey=g#2
hivel=127
lokey=g2
lovel=1
lpc=Q7XhQl27bMMJthZDR+wnwnA+KEJ+eRvCO3FaQaHsVcDGNuzAR4dCwPYeuUHPbbPBo4twQZyVsUB4KMTBIzrGQVnzA8FyADvBrkLIQc0xmsF9oA8+buQyQRBuMMDc3W3A
lpc_rms=-55.18
offset=91
pitch_keycenter=g#2
sample=SoloCello_pizzicato_PP_G#2_RR2.opus
volume=6.0
</region>

<region>
hikey=f#4
hivel=127
lokey=f4
lovel=1
lpc=nTXLQYbePsIJSNlBQeY7wIizkz/+/3jAiOiov+NMsz8kU2tAi1ElwIo/k8BBFFpAVoQ0QJ3TEb87K0fAdBPMP4PgKEB4Ds09RRMuwDeAXL80C1hAgf8Ev55lD8CNb6I/
lpc_rms=-64.21
offset=10282
pitch_keycenter=f#4
sample=SoloCello_pizzicato_PP_F#4_RR2.opus
volume=6.0
</region>

<region>
hikey=f#3
hivel=127
lokey=f3
lovel=1
lpc=JY0BQrz0XMI8s45B8CiCQKMcq0D5jxLAAa8fwABKpL8FBT8+sdUAP71b2T8NTxK/ms0vPReB1T7PC6q/AWvWvrJR9z4joYE/D4KHPxbRa7+/qpK+mjELP4qL6b+Kqa4/
lpc_rms=-63.96
offset=10040
pitch_keycenter=f#3
sample=SoloCello_pizzicato_PP_F#3_RR2.opus
volume=6.0
</region>

<region>
hikey=f#2
hivel=127
lokey=f2
lovel=1
lpc=L4lUQnmxmcJL/mRBu6XfP+c0G0FfNyk+uwOuvyBHRsDD2R/AVVq1v7xFKD9P/2tAHczrPxj01D98bEe/imo7P5nitr+uX40+BerBPyr4JcDEs5g+FMn5Pv+gb0DUPXLA
lpc_rms=-61.41
offset=12152
pitch_keycenter=f#2
sample=SoloCello_pizzicato_PP_F#2_RR2.opus
volume=6.0
</region>

<region>
hikey=B6
hivel=127
lokey=d#5
lovel=1
lpc=NW1xQRDVAcJ2RsFB9unQwFHbD0AiMZnAhjmKQJTVkMBRFNpAKR+1wIJ2x7/omJRAX8fKPGpX87/zZjW+sR97P0tDY76zWy1AjBVPwAe7Tj9vrTi/Bke4P0TikL8vT149
lpc_rms=-70.20
offset=12173
pitch_keycenter=E5
sample=SoloCello_pizzicato_PP_E5_RR2.opus
volume=6.0
</region>

<region>
hikey=e4
hivel=127
lokey=d#4
lovel=1
lpc=JLk/QqY028K0B6dCbM2owZv3y0B635DBZsNoQdndBMFOhIlBoQm0weg0E0ECCcZAj/GLPUUj9b9ytlPBPDB+QWMn9cAiV5NAEkyIwOBFcMAbHR5B6HU3wDt0lsAm0GpA
lpc_rms=-59.82
offset=11898
pitch_keycenter=e4
sample=SoloCello_pizzicato_PP_E4_RR2.opus
volume=6.0
</region>

<region>
hikey=e3
hivel=127
lokey=d#3
lovel=1
lpc=VLqFQgjN8MJ6CUBCXhijQKsQ0EAwY7jAzyTmwNg0ykB5Ntm9ArjOv+YMHD89w7JASc/ov0v1KMCP9CDA4UU1QMZVuT/07Jm+kgoMv7/FN8B9H8FAK7ACwA4pLcCE3L8/
lpc_rms=-56.37
offset=105
pitch_keycenter=e3
sample=SoloCello_pizzicato_PP_E3_RR2.opus
volume=6.0
</region>

<region>
hikey=e2
hivel=127
lokey=d#2
lovel=1
lpc=3sogQtxAgMLzWYVBPer/P84+60AQTPo+9jymv3VELcBL0La/psbrPq9f3T/REoI/wo7WP3j4LD/6jZ6/L8Btv5m5rb8KgBs/7lSeP1ufzb+3Oiy9rDnsvRJ1ub4EZK8/
lpc_rms=-62.79
offset=13325
pitch_keycenter=e2
sample=SoloCello_pizzicato_PP_E2_RR2.opus
volume=6.0
</region>

<region>
hikey=d5
hivel=127
lokey=c#5
lovel=1
lpc=uYHQQdvMYMJwbi5CkoOVwb3qBUEUpTvAhRV3P24X0j03fh0+mluBwKDvk0AmrZbAwau+QNFv3cAJKhBBqVj/wMPjfD+QiANBiIepwJ5OOMBYdrFAX0a3wN9mmUBm2BnA
lpc_rms=-59.79
offset=12393
pitch_keycenter=d5
sample=SoloCello_pizzicato_PP_D5_RR2.opus
volume=6.0
</region>

<region>
hikey=d4
hivel=127
lokey=c#4
lovel=1
lpc=FaC3QRFUQsLaqOlB6w9Tv1qpij6s8ZDAnAQCP2KEAMDJZBVAXJGBQJxPEcA/o7m+1sjNv5QJ2z90gFo/kHRPv3xZ279TuKm9eE7APzvZCj/IG/S/6SokP8oJTz/auqq+
lpc_rms=-64.06
offset=11048
pitch_keycenter=d4
sample=SoloCello_pizzicato_PP_D4_RR2.opus
volume=6.0
</region>

<region>
hikey=d3
hivel=127
lokey=c#3
lovel=1
lpc=JqpkQqn42cLa1ExClhCTvzoU70BNXizACYXFwD5XB8AB8VBAZ3dLPkwsjT+kMklAJO0XQMGm6z8cqcfACgCawIykNz9ZSbNADIgGQOkuasC/7SLAw0EOwHh91EDiEfi/
lpc_rms=-57.45
offset=9894
pitch_keycenter=d3
sample=SoloCello_pizzicato_PP_D3_RR2.opus
volume=6.0
</region>

<region>
hikey=d2
hivel=127
lokey=c#2
lovel=1
lpc=y7gVQomqbcKB325BqqnGP9bTAEHcUM+8m72EvzcHWsBXXp+/K0BGPs15fz+aymlAi904vmkLIr5IaVG/4w2FP4/bkL8lp1+/TiwqQH6Job9tsum+fA6tv7BcrL87VxtA
lpc_rms=-63.48
offset=10163
pitch_keycenter=d2
sample=SoloCello_pizzicato_PP_D2_RR2.opus
volume=6.0
</region>

<region>
hikey=c5
hivel=127
lokey=b4
lovel=1
lpc=HFSyQS9TSMKDWyVCoJKPwZXUEUFzowXBgH4EQfTwEsHy5xNBadDywHMhp0BAm1bA1VMNPsAbd0DEsFrAsy7YP0UYrL8QPWxA5dcawC19TcCcD51Abhx7wA6hN0AXm2q/
lpc_rms=-66.39
offset=8215
pitch_keycenter=c5
sample=SoloCello_pizzicato_PP_C5_RR2.opus
volume=6.0
</region>

<region>
hikey=c4
hivel=127
lokey=b3
lovel=1
lpc=jClOQRESpcGF3LRAMNvNP5CY/D/yO7q+Zfh6vwyr/b4lTWW+CJApvNShrz7MAjM/apWFPkuje7314Ry/5JhDPotpmL1ZYyI/SUKEPa26KL/9jQy/l717vmcFAT9SH7g+
lpc_rms=-72.89
offset=12222
pitch_keycenter=c4
sample=SoloCello_pizzicato_PP_C4_RR2.opus
volume=6.0
</region>

<region>
hikey=c3
hivel=127
lokey=b2
lovel=1
lpc=rdZtQsoc78IXEpZCJnS2wbL6g0Hk0WrBGh37QIjlz8ChUJFA0XjuwKAHUUExCAvBuM3GPw/PhEC05ZLAswQdQXCXWcEoH7xAlpCUQEQ72MDPZadA+6cRwAbLzr5kAY2+
lpc_rms=-61.07
offset=11983
pitch_keycenter=c3
sample=SoloCello_pizzicato_PP_C3_RR2.opus
volume=6.0
</region>

<region>
hivel=127
key=c2
lovel=1
lpc=BehdQnRd08I7EEdCcht4wLD7JkES6SDANJFXwFEKgcAjFuI/UEhzvyL8Nb9+FpVAf1BKQO3oMD8y6KLA3RwNv0fZo796OgNAvYUGQMsnlL/Uxrk+P5GCv9mFOsD0VTZA
lpc_rms=-63.49
offset=12213
sample=SoloCello_pizzicato_PP_C2_RR2.opus
volume=6.0
</region>

<region>
hikey=a#4
hivel=127
lokey=a4
lovel=1
lpc=vll1QaNJ4cHLtndBBEXpvVkaIj3/yCvANGGFvwT6zD6MWDO+9cF6Pz+lyT35HAu+Zty3vv1BojxmKWw/wcEuveqZNr7ZgQc/lvEYP/JBE78FIDO+k+HHPm8rFj8wcpC/
lpc_rms=-69.12
offset=13408
pitch_keycenter=a#4
sample=SoloCello_pizzicato_PP_A#4_RR2.opus
volume=6.0
</region>

<region>
hikey=a#3
hivel=127
lokey=a3
lovel=1
lpc=T9i/QdJ+Q8Kbi9JBp5bnP2T17T/mkJXALwRQwKP//T8OHgNAPajGv2oEXD5Cld68+xuMP/XoY78PLvu/WVWRQJKHE8BiZ/++1ziuv/2BwD9jaDs/K7zvP4+Wr8BHyVBA
lpc_rms=-64.12
offset=11749
pitch_keycenter=a#3
sample=SoloCello_pizzicato_PP_A#3_RR2.opus
volume=6.0
</region>

<region>
hikey=a#2
hivel=127
lokey=a2
lovel=1
lpc=hX9pQvxg3MLD+0RCfsq+QAxaokDigAXBJoMjwAMFX8A3QHU/bkmaQFQEHUCB9tS/8kfVv1M+VkBwiiXAn0rrvq9RHT9dS1G9TJxZQFQ3N8DfogfAOneRPcvU9z/9/Ly9
lpc_rms=-57.88
offset=13258
pitch_keycenter=a#2
sample=SoloCello_pizzicato_PP_A#2_RR2.opus
volume=6.0
</region>
</group>

<group>
group_label=RR2_43-84
lpc_hicc1=84
lpc_locc1=43
seq_length=4
seq_position=2

<region>
hikey=g#4
hivel=127
lokey=g4
lovel=1
lpc=8IbsQn1QbMNCw8pC578MQfW9g0LB24fCl4kKvbL+CMJgd6lC1FsswpP8NUIvNafCwXYsQuHok8GtRzpCSn8bwg2pfkE+zYDBRWI6QVEDsb/V2bRAS5AjwFRHS8G6PRRB
lpc_rms=-33.42
pitch_keycenter=g#4
sample=SoloCello_pizzicato_MF_G#4_RR2.opus
volume=-6.0
</region>

<region>
hikey=g#3
hivel=127
lokey=g3
lovel=1
lpc=Bsp3Q4I0IsQ5kflDVOP4wRtyJ8E+vrLCp/BiwclCsUBmMdBCJEhzwiMmkEFgSJzC1WXbQnYumMKkSTxCAjLkwRGYkcHo9CZCCC8+QGxCJMLAPrBBrPFxQSZSBcLXF4tB
lpc_rms=-34.37
pitch_keycenter=g#3
sample=SoloCello_pizzicato_MF_G#3_RR2.opus
volume=-6.0
</region>

<region>
hikey=g#2
hivel=127
lokey=g2
lovel=1
lpc=aUoGRIvWncRr7iREXwdNQ+EagULmOSTDxgDcwijaF8IkcMdCVKxcQa/sA0JHq9q/cR6HQcuku8JFvMRB5LkewZzWt0ETlmhB/YpmQZEpB8IZUSo+G23GQOpia79GTR9A
lpc_rms=-31.31
pitch_keycenter=g#2
sample=SoloCello_pizzicato_MF_G#2_RR2.opus
volume=-6.0
</region>

<region>
hikey=f#4
hivel=127
lokey=f4
lovel=1
lpc=sIvVQlIpSMNRPNZCYak3wgz4j0Jx9W/CMbXrQcgtDMKcSjdCAG80wUWSAMLPqAlCajI9wRc4dcA1s5hAa0EIv+FBdEAumzRADwL4wN1Fv0ETbrHBtmiJwUHoxUEfnNLA
lpc_rms=-36.21
pitch_keycenter=f#4
sample=SoloCello_pizzicato_MF_F#4_RR2.opus
volume=-6.0
</region>

<region>
hikey=f#3
hivel=127
lokey=f3
lovel=1
lpc=DRAXQ/OjssNhj2RDNYsvQRDZZz9jmELCwXoZPX36wb8+metB49xpwVbPIEFHBD/BCEYMQQMwd8EvkU9Byl1HwTW8L0ERcyJACawvQJKNrT+IEbbA4EdZwCHtZMECdHVB
lpc_rms=-35.92
offset=2969
pitch_keycenter=f#3
sample=SoloCello_pizzicato_MF_F#3_RR2.opus
volume=-6.0
</region>

<region>
hikey=f#2
hivel=127
lokey=f2
lovel=1
lpc=bgqGQ9nUGcRN75RDzbHzQsdHDkJmibTCsMx9wjKuS0ExiBBC1Pn3wSoHdEJHGRPBPErVwAluTsLR7QtCQdONwbDp7kGSZYPBN8YOQsU7WcIFHc5A7D8JQk1sxcHntclA
lpc_rms=-35.41
pitch_keycenter=f#2
sample=SoloCello_pizzicato_MF_F#2_RR2.opus
volume=-6.0
</region>

<region>
hikey=B6
hivel=127
lokey=d#5
lovel=1
lpc=ctwUQlIInMJH2wdCiINsQULeBUDpSCvBhclcPJSUfr5kAiVAEqhwwLwRhUDG4d7A7MO+QBN6rr+Y65xAVrS3PWU5fj5tppfBQgiVQVNKW8ARtlg/DfCpwJnHyUCpzDHA
lpc_rms=-42.95
pitch_keycenter=E5
sample=SoloCello_pizzicato_MF_E5_RR2.opus
volume=-6.0
</region>

<region>
hikey=e4
hivel=127
lokey=d#4
lovel=1
lpc=g2MAQ6RigsOmfB9Du/JMwsJjT0KhijDCRnVAwMwQjUHuLzBCqLCAwrizrUFj+GxBFZSdwcNMGUG/MJ3BVv24QTcNBEF3Ba7BjxojQRt8BEHN1IDBtLdNPmbCrcAbxCRB
lpc_rms=-36.06
pitch_keycenter=e4
sample=SoloCello_pizzicato_MF_E4_RR2.opus
volume=-6.0
</region>

<region>
hikey=e3
hivel=127
lokey=d#3
lovel=1
lpc=arlWQ3yP8MNUi45DUjk3QfE7oEAg42nC5tl5wEDkekFjb/BBLIprwQDARkESGbTBpsrJQEVl3j++m59BnMurwVuhg8FkZ7m/To0XQh0XZ8F0iJzBVy9EQXCJ5EBuqqrA
lpc_rms=-33.14
offset=81
pitch_keycenter=e3
sample=SoloCello_pizzicato_MF_E3_RR2.opus
volume=-6.0
</region>

<region>
hikey=e2
hivel=127
lokey=d#2
lovel=1
lpc=/M5fQzOw2MN1rgpDHcRiQqArhkKcBrPB4g7OwVIzT8Ei/KdAtWuXvrfzSUC3EszAbuBvQSNBMsErTkVA0QKSwH9HF0EFO6bArbg7QYnc0MA+szXA7MDMwKpsCMGxOktB
lpc_rms=-36.13
offset=12172
pitch_keycenter=e2
sample=SoloCello_pizzicato_MF_E2_RR2.opus
volume=-6.0
</region>

<region>
hikey=d5
hivel=127
lokey=c#5
lovel=1
lpc=jJiAQg5rGsPIj8xCx9GjwAJyw0E2U+vBqDvowb2ezkFpNlq/kHCFQaMFxsCrCLLBVWEpQWz1qEAvg9Q+eDkwQLF1kcB9aZfAPtIxQe+COcEklZZAEWnsQCQ8PcGGYJZA
lpc_rms=-40.08
pitch_keycenter=d5
sample=SoloCello_pizzicato_MF_D5_RR2.opus
volume=-6.0
</region>

<region>
hikey=d4
hivel=127
lokey=c#4
lovel=1
lpc=TGGRQiDHGMNpKrtCtL2gwVrtqEFnSrPBKc3IwC/tkEGttNNA4r4LwdT8X7+zyIrB18glQvyjAsJpABZBm/JhwbxDikHm+rPA/3AzQUi4i8FDLYNAlMtKQWhiYcFq4JRA
lpc_rms=-43.97
pitch_keycenter=d4
sample=SoloCello_pizzicato_MF_D4_RR2.opus
volume=-6.0
</region>

<region>
hikey=d3
hivel=127
lokey=c#3
lovel=1
lpc=aQ+BQ3Z4IsSa7NpDMsESQjobBsLp6XDCMikWwYbS2r/iYSJCLA4XwgleDUI4IvfAkpKPwC425sENkclB9CJ7wANwHkGcqAFBhfIHQWzZRcIUzH9Bbtr5QeMp+sHEWS1B
lpc_rms=-36.36
pitch_keycenter=d3
sample=SoloCello_pizzicato_MF_D3_RR2.opus
volume=-6.0
</region>

<region>
hikey=d2
hivel=127
lokey=c#2
lovel=1
lpc=4BU9QxHjy8MVcTZDCxtKQmcSNEJ1Rg3CKJnAwdYEa8EPuhdATvgPwenhu0GRwvQ+ylCuQXpV28F+0oxBW9SvwZIrS0AV+BDBpe+PQbMKvcDju25AF9GyQGjYSsEoj5pA
lpc_rms=-41.68
offset=7537
pitch_keycenter=d2
sample=SoloCello_pizzicato_MF_D2_RR2.opus
volume=-6.0
</region>

<region>
hikey=c5
hivel=127
lokey=b4
lovel=1
lpc=jFd8QleZJMN0mQ1DFpcYwhIvU0FRuQfCe7a5QVoxBcExNhVB9NwpwNGPwsCkDOdA5EDVwDK4mD+fb1hBtw+1wTLGHEFTq+FA4pEywTJBkEDDsLA/5p6cQYqJDcKOvnZB
lpc_rms=-37.18
offset=1213
pitch_keycenter=c5
sample=SoloCello_pizzicato_MF_C5_RR2.opus
volume=-6.0
</region>

<region>
hikey=c4
hivel=127
lokey=b3
lovel=1
lpc=2kgTQ32WrcPjoWxD1CFzwT5JTkH0tVzCn5H5wPvC7kHZGQJCCMlBwr2dLUFUSUhBnUFBwAecksGG5BZBBw4RQRz+5r95FVzBY1bMQSbJbsGauRnBnLHpwNFUAkI2MX3B
lpc_rms=-36.26
pitch_keycenter=c4
sample=SoloCello_pizzicato_MF_C4_RR2.opus
volume=-6.0
</region>

<region>
hikey=c3
hivel=127
lokey=b2
lovel=1
lpc=PbF/Q10KGcTxvMZDzj2oQTdAq8EXDW7C4FoJwRDkG0HMuzZC7ua9wVc2GUFnDivCqyUdQtGQgcFIsoZAr8ntwO6h50EvPlrBJCjdwC8JksEeSUJBFDUJQmfXEsJLSRZB
lpc_rms=-36.85
pitch_keycenter=c3
sample=SoloCello_pizzicato_MF_C3_RR2.opus
volume=-6.0
</region>

<region>
hivel=127
key=c2
lovel=1
lpc=V8BtQ0MVA8RyWYhDqgstQZ5Dn0LRLmfCJcqYwcmRQcF6S1S/lwDawIB4vkGznpdAB5k+QSzz28GEymdBENTzwLMfkcDdcFhAUgbVP2TXokAn3r3AOyzgv3zWd8Dk3M5A
lpc_rms=-35.21
offset=14706
sample=SoloCello_pizzicato_MF_C2_RR2.opus
volume=-6.0
</region>

<region>
hikey=a#4
hivel=127
lokey=a4
lovel=1
lpc=HNEDQp7JjMI2YRpCY/bOP6fvJUEZ7J3BJFZuQEy5A73wiqdAUH5kPgIQ5T/ArqW/FQ/+wKmfRMDlEKRByBV6wRgyK0B29dHAw202QbmvtsCfVEdBscaLwZmk2EDznSK6
lpc_rms=-39.68
pitch_keycenter=a#4
sample=SoloCello_pizzicato_MF_A#4_RR2.opus
volume=-6.0
</region>

<region>
hikey=a#3
hivel=127
lokey=a3
lovel=1
lpc=jt5sQ2OkHMTYLgREKln4wic3aEKwb8rCAvqtwUoP5UF+nb1Cu8HEwkgzskEXZg/C1Je7Qq9Ag8LxKmLBnpBCQsOq/sEuQY9AJESdwXJngUK/zjPC23PCP1mGJcG+mFBB
lpc_rms=-33.33
pitch_keycenter=a#3
sample=SoloCello_pizzicato_MF_A#3_RR2.opus
volume=-6.0
</region>

<region>
hikey=a#2
hivel=127
lokey=a2
lovel=1
lpc=dj+iQ4I6QMSbzMxDHgjjQu6mjELOHR3DmWoPwml900GmBlk/8uCvQbOGj0EFUUjCmHRpQl0BIsJQTEJBnSjEwGEZJcEXXTNBMfomQsDugMLY0idBZwG9QZRQD8FdHE++
lpc_rms=-35.88
pitch_keycenter=a#2
sample=SoloCello_pizzicato_MF_A#2_RR2.opus
volume=-6.0
</region>
</group>

<group>
group_label=RR3_85-127
lpc_hicc1=127
lpc_locc1=85
seq_length=4
seq_position=3

<region>
hikey=g#4
hivel=127
lokey=g4
lovel=1
lpc=YhLIQnwyocPf281Dtc54w8A/TUJpYl1BvAFXQfH8TMIDKHFCFLUZwseJiUH/WfbB9sOWQiZz4cJYi85CI05BwlkTOcFS6A1CfgxcwbaaycA8w07AHfWUQQ9QpMG1Iw5B
lpc_rms=-26.40
pitch_keycenter=g#4
sample=SoloCello_pizzicato_FF_G#4_RR3.opus
</region>

<region>
hikey=g#3
hivel=127
lokey=g3
lovel=1
lpc=RFQsQ9PHx8Oc41pDEY9sQSG4nkLjmorCTUDVP0Vz2sKVNfJCCHSjwrmb7UIZ2KLCCxkDQqYyHsJXWhxCmYkzwnNNLUK9B+DANDcTwsKy80HB4g1CXOBqwkC/fkFXdJBA
lpc_rms=-28.78
pitch_keycenter=g#3
sample=SoloCello_pizzicato_FF_G#3_RR3.opus
</region>

<region>
hikey=g#2
hivel=127
lokey=g2
lovel=1
lpc=oI6MQwDBPsTfFQlEVqTOQpjWjsJErHvDJsw4QynpicLnxRFCGDviQQVybcC9h7nBTFaRQI5JNMLNDk5CElTwv4AVyMBxtbzBhIPuQSfZzD/fnCTB4QsGwSmVAkHVa7i+
lpc_rms=-25.52
pitch_keycenter=g#2
sample=SoloCello_pizzicato_FF_G#2_RR3.opus
</region>

<region>
hikey=f#4
hivel=127
lokey=f4
lovel=1
lpc=xJXCQhJXpsMuw+BDNtSVwxE2A0OtDenCUU4BQ6xGuMKD5rBCw2cGwwdMD0M7hrXCesQvQsl9R8KGQo1C4MtmwgyiAULSjv3BQv0mQmst0sHn8znBYiMSQrkV68ErOBBB
lpc_rms=-31.50
pitch_keycenter=f#4
sample=SoloCello_pizzicato_FF_F#4_RR3.opus
</region>

<region>
hikey=f#3
hivel=127
lokey=f3
lovel=1
lpc=4/8jQwoR2sOcZ7ZD7cO0wnw4lEKlQQ7DnsyyQh8QVMJp+a1BRlaTQWB8yUFnuYrCw0QgQmHyU8E/BQtC9B2BwjAnO0LzI4O//u6vQeUHfsJUxYhBR939QceHisG82Xo/
lpc_rms=-27.42
pitch_keycenter=f#3
sample=SoloCello_pizzicato_FF_F#3_RR3.opus
</region>

<region>
hikey=f#2
hivel=127
lokey=f2
lovel=1
lpc=6YNvQ29CGsSfMddD4OQDQpJWBcBTaCXDh7JXQqqYjkI9aIXCitccQeEaGkI0anrBSEg4v08nD8LdE4VChEaNwqv/fEGD+DtBVmbSQcITl8Ev/WfAf2GWwVSV4UFEYBfB
lpc_rms=-28.24
pitch_keycenter=f#2
sample=SoloCello_pizzicato_FF_F#2_RR3.opus
</region>

<region>
hikey=B6
hivel=127
lokey=d#5
lovel=1
lpc=X0srQnCSD8PuEk9DASkuwx5S3ELJyZLCyM6AQorGn8K0B8NCvs6hwnu5LUKqaszBN1TxQcX+CcKWIQRC1zPGwUaXxkC4X7xAO0CbQBCbx8FvUhZCO0ISwg33sUHabMXA
lpc_rms=-31.90
pitch_keycenter=E5
sample=SoloCello_pizzicato_FF_E5_RR3.opus
</region>

<region>
hikey=e4
hivel=127
lokey=d#4
lovel=1
lpc=m6q0Qr9ve8My5XVD2IXIwrwcZkInmrjCWyiaQh/+MsKYOuZBNTbZwOEAjb8AY1nBzU6tQRS89MHuMvBBE2JXQC8+osEluV3BgloaQvhRg8Fb2cFArl6vwcp+l0HhjYLA
lpc_rms=-28.01
pitch_keycenter=e4
sample=SoloCello_pizzicato_FF_E4_RR3.opus
</region>

<region>
hikey=e3
hivel=127
lokey=d#3
lovel=1
lpc=nvtKQz+vCcSSoPtDILgww85VZELJxzTCUZwHQXGassHkxkpCSGqwwtnt80IxsrfChX6wQsLx/8L+W7ZCvYsuQIMvUsIZPD5C5QGawZjMsEGtgWXCMlENQgA0akHmDF3B
lpc_rms=-24.58
pitch_keycenter=e3
sample=SoloCello_pizzicato_FF_E3_RR3.opus
</region>

<region>
hikey=e2
hivel=127
lokey=d#2
lovel=1
lpc=zaR4Q+hIJ8RtDP9DDXenwXrNXkLRzk7D0ZdWQtsG8cFojwVDsM3vwpgb7EJKK57CpALQwU5VxEGiyS1Be1+6wI00ckFX71bBO+Q1P/opJEFW8OrBC1D4QfFXa8E5LFRA
lpc_rms=-29.14
pitch_keycenter=e2
sample=SoloCello_pizzicato_FF_E2_RR3.opus
</region>

<region>
hikey=d5
hivel=127
lokey=c#5
lovel=1
lpc=CTlSQpcPJsN/ul1D26w2w9yzBkMXfd/CLcDLQgE5xMI/zqpC1fppwtvEGEJFqhzCRVdIQs4BScISZANC3pR2wXNFaEHBZuvB79wnQgoKjcGTLXfBPM61QOGERkHt7M7A
lpc_rms=-30.14
pitch_keycenter=d5
sample=SoloCello_pizzicato_FF_D5_RR3.opus
</region>

<region>
hikey=d4
hivel=127
lokey=c#4
lovel=1
lpc=VsmbQrmGVMMvwz9DV36BwtF23UE+FL3AG9dGwhKDS0KI1sfBAusRQqYja8JVFv1BGkcPQgscb8JxZv1Bo+WewbpsmUFDww/BneEmQZ0ry8CIaB7BBXKZQR33h8HSX8dA
lpc_rms=-36.36
pitch_keycenter=d4
sample=SoloCello_pizzicato_FF_D4_RR3.opus
</region>

<region>
hikey=d3
hivel=127
lokey=c#3
lovel=1
lpc=1TRRQwM0HsR5LCpE+nGXw+gVs0Lncb3CEG3IQhZA1cK08alCq06UwnlaBkMDSwzDunNHQqlPMkEjkNhAehG2wfkwBsFo1K5BvPeDwM2k+MBmokhCBFm+wgpuhkIjk4DB
lpc_rms=-27.43
pitch_keycenter=d3
sample=SoloCello_pizzicato_FF_D3_RR3.opus
</region>

<region>
hikey=d2
hivel=127
lokey=c#2
lovel=1
lpc=+MlyQ3ADGcRpYc1D6k4dQUaVZkLjUiTDfLAlQjs9ZUG65SDC+6htQsyEoEFVnyPC5hwRwOV+OMEheAlBYLj+QQA8ZcK6TrRB3BsyQmIhL8K0PzBBcYNAwFr5ScAEtINA
lpc_rms=-31.98
pitch_keycenter=d2
sample=SoloCello_pizzicato_FF_D2_RR3.opus
</region>

<region>
hikey=c5
hivel=127
lokey=b4
lovel=1
lpc=sFNPQne6JMPLWVxD2DU2wxsKDkPx2wLDzVXpQvWhr8L+JlxCqOWvwQ7vB8HENbpBdf39wd6IQkKfJmbC9oxXQvwnT8KgF0xCfpchwkBIm0GzGHbABbX1P0NoTcD4pdc/
lpc_rms=-28.02
pitch_keycenter=c5
sample=SoloCello_pizzicato_FF_C5_RR3.opus
</region>

<region>
hikey=c4
hivel=127
lokey=b3
lovel=1
lpc=EwfLQgBBpsMa289DPrR2wwEZz0Ib86PC4HUmQn5PbMBUDq5BmLJKwVTRicH+TU3A9YORQR3ZBEHu2RzBHglRwX1eQUCeuZxB8bqewcVVu0Fx2rzBQTYSQO2CIUEyIo7A
lpc_rms=-28.68
pitch_keycenter=c4
sample=SoloCello_pizzicato_FF_C4_RR3.opus
</region>

<region>
hikey=c3
hivel=127
lokey=b2
lovel=1
lpc=/Y9XQ91AGsSEFxREAa9Aw9qXHEKTakXCR3K5wccWmL74E/ZCjH7xwtAYh0BA4wRCbMz+QRpiSMLr6ypCI3qqwo2aZ0IqzRFCnysdws6LoMGTQ+lByp+MwNk10MCUvFtA
lpc_rms=-27.26
pitch_keycenter=c3
sample=SoloCello_pizzicato_FF_C3_RR3.opus
</region>

<region>
hivel=127
key=c2
lovel=1
lpc=0kWVQ/eFNMQNBtND5xWBQpSSnkJQUgXDl+0Aw712JkNelY3Cb2aNP8uDoEKcdY3CyQjCQXI9vMGrQTtBdSIiQf1+/8GnUnxCFcOUwi3VaEK6VzDCJbDSQWvi+8D0qf8/
lpc_rms=-29.43
sample=SoloCello_pizzicato_FF_C2_RR3.opus
</region>

<region>
hikey=a#4
hivel=127
lokey=a4
lovel=1
lpc=6SwJQs4UxMKEfsZCiicTwhqcQ0HFJf7BtFcMQtpWwMFTophBY2J8wSdFNkGFKvm/ZEj+wBr1WEDwPdNA6sjUwDyygUAfQLfAtWOYQOZyUb0uVYFAXxlOwbk8IkGmWgzA
lpc_rms=-36.19
offset=68
pitch_keycenter=a#4
sample=SoloCello_pizzicato_FF_A#4_RR3.opus
</region>

<region>
hikey=a#3
hivel=127
lokey=a3
lovel=1
lpc=Rr1UQ9m6AcRn/KVDVzfov8apmEL4A5rCH6u5wnlvlEJfoNTB4RSmQVxuSME76m9CsqsJwu0qmsHIMQjC88V6Qhx/dkCzqJbCsMeSQkfxlz96En/BX6h5wkvboEIeFs7B
lpc_rms=-28.70
pitch_keycenter=a#3
sample=SoloCello_pizzicato_FF_A#3_RR3.opus
</region>

<region>
hikey=a#2
hivel=127
lokey=a2
lovel=1
lpc=+PK9Q9AXkcT1X5REEiG5wyWBH0JntULD6QvLQtwNfUGhShZCoWdewhpeCUJdVkZB4rB4wg/KbcGozQJDtod8wm+/nMKSKjRCIk6FQgbYu8JSiL9CnDWjwgMH5EF5f9s+
lpc_rms=-24.72
pitch_keycenter=a#2
sample=SoloCello_pizzicato_FF_A#2_RR3.opus
</region>
</group>

<group>
group_label=RR3_0-42
lpc_hicc1=42
lpc_locc1=0
seq_length=4
seq_position=3

<region>
hikey=g#4
hivel=127
lokey=g4
lovel=1
lpc=Td8eQqWIrcLP/4ZC1Wa4wUVps0AcjZPAduWwQB9Eh8Ccr1pApA1pwKYLxD/ghMa/t58PQBArcL+jx4g/DsqHv8nj4b1ElyFAvguEwHw4a0BlDhfATWJTQAM1ocBB5mZA
lpc_rms=-63.15
offset=12929
pitch_keycenter=g#4
sample=SoloCello_pizzicato_PP_G#4_RR3.opus
volume=6.0
</region>

<region>
hikey=g#3
hivel=127
lokey=g3
lovel=1
lpc=i60PQgvxoMLQh1VC1BrLwDmPaj5P5+2/KEiPPyPt+sDwpRFBGNctwCxuGcCFXyZA4t8HwMg6rUAbtc7AH8EDP2z34z9f9VlA6u0rwNmfMr915ChA2w8IvtCnzMBfqIpA
lpc_rms=-65.58
offset=15293
pitch_keycenter=g#3
sample=SoloCello_pizzicato_PP_G#3_RR3.opus
volume=6.0
</region>

<region>
hikey=g#2
hivel=127
lokey=g2
lovel=1
lpc=iKaIQog05cI5iBFCtzTgQDcXEUGgF6vATPihv7e/RMDP29q+buPhP2pjuD8PVw9A34iBv3Hokz8TUce/b/YDP0T6L79SWc49TzlaQCqQA8D0saK/+NKcwG0JMj8+tYpA
lpc_rms=-57.97
offset=2039
pitch_keycenter=g#2
sample=SoloCello_pizzicato_PP_G#2_RR3.opus
volume=6.0
</region>

<region>
hikey=f#4
hivel=127
lokey=f4
lovel=1
lpc=2mywQXYyLcJPvrxB9MR+vxhlSUDCWajARPs/v13WWECVy6m/yfE0Pxe9EcC4eYc/Gze8Pzh3YL+K/py/hnQzQPY20j16YgDA1Q0LwL9iFz/NN3xA9t6Svsm+m8DremRA
lpc_rms=-65.31
offset=17052
pitch_keycenter=f#4
sample=SoloCello_pizzicato_PP_F#4_RR3.opus
volume=6.0
</region>

<region>
hikey=f#3
hivel=127
lokey=f3
lovel=1
lpc=as3mQb6dVsIcJrNBS3VyQDAqFUCyjw7Au8I9v2EX2r/VZA6/C9GpvnkaKj9qkdc/O2ScvRrInDzpZuq/E7CNPgAYnD8tNaI/D4/cPyx4SsC7fT8/PJWpv4LOdj+0QdC9
lpc_rms=-63.78
offset=11399
pitch_keycenter=f#3
sample=SoloCello_pizzicato_PP_F#3_RR3.opus
volume=6.0
</region>

<region>
hikey=f#2
hivel=127
lokey=f2
lovel=1
lpc=TZR8Qr9ZwsJkxJ1BSvXXQBY2KUHPh+y/IyX7v5LNg8De3gvAmgxcQE+paEAN025AGdqaPh6MG8BlJSjAL0PMPiVRzT8ihge9/yfRP2z+OcCEThhApLMewB8EJb8NNaA/
lpc_rms=-59.35
offset=13584
pitch_keycenter=f#2
sample=SoloCello_pizzicato_PP_F#2_RR3.opus
volume=6.0
</region>

<region>
hikey=B6
hivel=127
lokey=d#5
lovel=1
lpc=Uj+iQS/CN8LcziNCSMynwcctAEGXcE2/eH/Gv7doxb8APJZA1ubKwPTf8kDBjBvBvL0wQZOZr8CZZ8s/iHIFwIsqLT/7jpe/0TeDQCSfQ8BOCJu9aa9sQOHmiMAfuIU/
lpc_rms=-64.89
offset=11526
pitch_keycenter=E5
sample=SoloCello_pizzicato_PP_E5_RR3.opus
volume=6.0
</region>

<region>
hikey=e4
hivel=127
lokey=d#4
lovel=1
lpc=+sKBQTRn7sEOPVNBr2iZP0/Gsj/CIRvA/UY+vxq54j4rkpU/nH7APLhHhL/qUSM9NnIEPlNCYz6evwk/LmaFP2ANkb6rWqO+TB8lvxmFk76MWGc/0L3Dvm7BBsCQm+8/
lpc_rms=-69.27
offset=9973
pitch_keycenter=e4
sample=SoloCello_pizzicato_PP_E4_RR3.opus
volume=6.0
</region>

<region>
hikey=e3
hivel=127
lokey=d#3
lovel=1
lpc=oK65QnYnScPHENxCBOI4QU1LOEA2i3vBYdnuwJTRpb9pRltBmC2IwBfcvMB7xgJBZhLgwN2HC0EjGsnANhqzQFUDRcBpeLvAeR7dQL1DA8F2umFBDHvqwJrH5cAFJtFA
lpc_rms=-51.62
offset=5313
pitch_keycenter=e3
sample=SoloCello_pizzicato_PP_E3_RR3.opus
volume=6.0
</region>

<region>
hikey=e2
hivel=127
lokey=d#2
lovel=1
lpc=sxwjQskgdcKVmGNBJboYPwrGuEB/wic//IrgvrsQd8Bhqui9lyHmP4dWoz+rgjtAji5yP6yEaz+T95HAPgBcPi+YAz+emE4+u2yjvolOvL/ao4E/s26iv6ehID9eCZA/
lpc_rms=-63.25
offset=14410
pitch_keycenter=e2
sample=SoloCello_pizzicato_PP_E2_RR3.opus
volume=6.0
</region>

<region>
hikey=d5
hivel=127
lokey=c#5
lovel=1
lpc=ObOhQVsqPsIxJiRCLRuLwerSPkGlV27BjOMzQaBP0cDNPJxAEDMUwUIwUEE6bPzA73gCP2mcKL57EEtAGZ0BwPiVSMCOMABBuGGLwJJhnb8VfvO9GI07QIGuP77IG9e/
lpc_rms=-63.51
offset=10160
pitch_keycenter=d5
sample=SoloCello_pizzicato_PP_D5_RR3.opus
volume=6.0
</region>

<region>
hikey=d4
hivel=127
lokey=c#4
lovel=1
lpc=XsSxQVwAQMKxk/ZBXP4zwBsPhj+PUqPAonoQPg2E6T0O5nRAw7t8vyQYQsB7vCRAhlwpPv1ysT7OPQzAUgMoQMyasb/eHGK+dPiZPg3vAb8x//e9VtJgPzQ7BMDDe+I/
lpc_rms=-63.93
offset=13313
pitch_keycenter=d4
sample=SoloCello_pizzicato_PP_D4_RR3.opus
volume=6.0
</region>

<region>
hikey=d3
hivel=127
lokey=c#3
lovel=1
lpc=6b5aQpllwMKzmxJCKdI4vwn6JUF5TIvADECkwMB8sD8oaWRA6wxmv3lXVz49E4lA3FIHv2qP178rI/S/R8g5PuUMI8DWfWNAYxF2QNOpfcD6hhzAcpZxv7O5E0D8Xgo/
lpc_rms=-58.67
offset=13413
pitch_keycenter=d3
sample=SoloCello_pizzicato_PP_D3_RR3.opus
volume=6.0
</region>

<region>
hikey=d2
hivel=127
lokey=c#2
lovel=1
lpc=UmPtQT52K8Kr7vZAiq31PTOAxEBTA4Q/mJiQv7E4k787Uq+/fyXivBolLr5tJro/ltJFP8AxXj957xS/T89ePUt/oj1CFWe+m46IP/+oGr87oee+s9vJv8IKXz9bMQc/
lpc_rms=-66.46
offset=16127
pitch_keycenter=d2
sample=SoloCello_pizzicato_PP_D2_RR3.opus
volume=6.0
</region>

<region>
hikey=c5
hivel=127
lokey=b4
lovel=1
lpc=B3xBQeiZxcEHo4BBVe+5vwBltL63dUXAjTQWv1j6D0CPKUU+H0/OPqSun77o0oK/Q+Svvmlqrz+yGKg/eIcCwL+zIT8SKoM/kf+wvy4uxz4LcSs/p+nYvWFbK8AhbgRA
lpc_rms=-69.04
offset=11729
pitch_keycenter=c5
sample=SoloCello_pizzicato_PP_C5_RR3.opus
volume=6.0
</region>

<region>
hikey=c4
hivel=127
lokey=b3
lovel=1
lpc=iIVrQkw63sI/Uk9Ctgi4QHohI0CPWwbB7J2SwKRV8z+hc3dAx32Pvjr94j5jo4U/Pm6Nv31DrL80eEo/oDIQQMtvK8Bu67s/rVe5PmcQDb8RECrAPNfxP0z/fsCdTJhA
lpc_rms=-57.57
pitch_keycenter=c4
sample=SoloCello_pizzicato_PP_C4_RR3.opus
volume=6.0
</region>

<region>
hikey=c3
hivel=127
lokey=b2
lovel=1
lpc=/112Qq33+sJ725lCtoSKwWiPD0HVxBXBXXn8QAwcGsHNUsxA0+f3wHPhgUHYIi7B+m8sQKfPgkAfAuHAGvYDQfm8DcFyNbS/oL4sQTw0dMC4UMLAZZC6QNZwScDUMqA/
lpc_rms=-60.53
offset=13583
pitch_keycenter=c3
sample=SoloCello_pizzicato_PP_C3_RR3.opus
volume=6.0
</region>

<region>
hivel=127
key=c2
lovel=1
lpc=IdWOQmGOC8On14NCH4ipv4qiY0GW7vPAF8umwJM77r83WqM/G1HxP9l7PsC76sJAPVW+Px5zXj+g8evAKKGmP8OiR0BKIv6/Qd5VQCMfSL8hSjHArUumv6t5D77a8ghA
lpc_rms=-61.79
offset=14802
sample=SoloCello_pizzicato_PP_C2_RR3.opus
volume=6.0
</region>

<region>
hikey=a#4
hivel=127
lokey=a4
lovel=1
lpc=xFpgQTgJ3sGYtoNBV4Lzv5WkaEAF7ePAbo7BP2U40z9KkAy+46TNPp9cur+O/YQ/4wNkvyRqpT9yV/k8vUXTvmm5Mj9HSdq/gntcP2KNDz/MCAE/zOZPP8vPScBArMg/
lpc_rms=-67.91
offset=14924
pitch_keycenter=a#4
sample=SoloCello_pizzicato_PP_A#4_RR3.opus
volume=6.0
</region>

<region>
hikey=a#3
hivel=127
lokey=a3
lovel=1
lpc=hfhIQkrKxsLoLTtCruP2QCGKnECSQhTBBIvJwC65lkDBGrs/lT2YPup4mT5iq8y/xJstv9A2A78x68U/d8sWQFbu7b+fIXjABk5NQJZ1mj492kdAq9hnvwWoFcHOWu9A
lpc_rms=-57.84
pitch_keycenter=a#3
sample=SoloCello_pizzicato_PP_A#3_RR3.opus
volume=6.0
</region>

<region>
hikey=a#2
hivel=127
lokey=a2
lovel=1
lpc=JHZyQuCL3sKV1kpCwlKrvxKAzkAwGX3ADqpTv4yWFsDYTWnAqj3RP3KjmkC0sCfAQCq6vzP7zT8ZYb0/eV0WQNkqJ8Avr6Y/YS5xQBxc7L8p9ELAAZbJPm0jWr9V32Y/
lpc_rms=-57.47
offset=37
pitch_keycenter=a#2
sample=SoloCello_pizzicato_PP_A#2_RR3.opus
volume=6.0
</region>
</group>

<group>
group_label=RR3_43-84
lpc_hicc1=84
lpc_locc1=43
seq_length=4
seq_position=3

<region>
hikey=g#4
hivel=127
lokey=g4
lovel=1
lpc=dlm/QkAIQMN0WMNC347Mv4Kyu0C7A9jACK9QwdqBKUKMHMHBZLIIwnZEVUJLHr/ByChoQNoDzMHoJkBCkg68wWVR6MAA+cLAv9G5QV3raL8FzIHBjPPtv0VqVEHNa6PA
lpc_rms=-36.88
pitch_keycenter=g#4
sample=SoloCello_pizzicato_MF_G#4_RR3.opus
volume=-6.0
</region>

<region>
hikey=g#3
hivel=127
lokey=g3
lovel=1
lpc=vqNSQ9guD8RQuvBDFPVMwrJaSMJq+VrC8qN4QKxbGUJzSlhCGY/2wooDaEJKQAZC/6DXv5W0V8K6AeNBLlMFwtJKXUJEeKFBJ45BwiVUPMJ0roNClKPeQWVsh8KsHtlB
lpc_rms=-36.05
pitch_keycenter=g#3
sample=SoloCello_pizzicato_MF_G#3_RR3.opus
volume=-6.0
</region>

<region>
hikey=g#2
hivel=127
lokey=g2
lovel=1
lpc=6/8TRE0nusQ/OWFEa/x9Q2yzgMEnZZrD08enwpZOiUKiGRBDx+yCwV7efEGa78DCE6QnP08YBMFUvcNChIQFwq1xY8G0DHLCfuKyQrjROcKejxxCYBEJwj08ocHG4M1B
lpc_rms=-29.85
pitch_keycenter=g#2
sample=SoloCello_pizzicato_MF_G#2_RR3.opus
volume=-6.0
</region>

<region>
hikey=f#4
hivel=127
lokey=f4
lovel=1
lpc=0RvPQqtMRMOh2spCA/ABwiYcU0I5Gj/Cc20pQTdBjsD3yuhBs2T4wJsBNMGS9+DAXkzGQXyzncAMZozB48mZQSClHMHAhujADIQuQWxe4D8OeYDBu2iowZaEU0JQ6q/B
lpc_rms=-37.74
pitch_keycenter=f#4
sample=SoloCello_pizzicato_MF_F#4_RR3.opus
volume=-6.0
</region>

<region>
hikey=f#3
hivel=127
lokey=f3
lovel=1
lpc=IhEhQ+xAusOmlmBDUHyMQbwAQ0HvFEzCGUJUwUL31EAxeL1B6tE9wYLk60DsdQm9ynnLv8iQscDmuBRBFLCEwJKX6sAGco7ATfiKQR8BOT+P4l3BwErnv1Y1C0HpGa6/
lpc_rms=-36.51
pitch_keycenter=f#3
sample=SoloCello_pizzicato_MF_F#3_RR3.opus
volume=-6.0
</region>

<region>
hikey=f#2
hivel=127
lokey=f2
lovel=1
lpc=8AdxQzfLBcSUXlxDsI4bQ8kK8kHYXvTC93QIwjBzjMDDQ6dC5vo3wgQlCUKXF0nBPo+LwYVvLz6V3e4/PAEPQaOMk8DYelU/1EzNvo1Jn8BdTZ5BLIOuwRXEAEBhDaRA
lpc_rms=-35.69
pitch_keycenter=f#2
sample=SoloCello_pizzicato_MF_F#2_RR3.opus
volume=-6.0
</region>

<region>
hikey=B6
hivel=127
lokey=d#5
lovel=1
lpc=ZKPyQagYjMJ9mUBCPPRPvyQrS8FzH2hBn1d1wQmCu0BDK1zAFYPJQLXtXr+q4AnBtmF0QU2DNMHMoLI/WX0qQWuqVcFYMLDARu2QQSNmucCNc+g/dYUtwUJdw0BU4d0+
lpc_rms=-45.01
pitch_keycenter=E5
sample=SoloCello_pizzicato_MF_E5_RR3.opus
volume=-6.0
</region>

<region>
hikey=e4
hivel=127
lokey=d#4
lovel=1
lpc=Zdv8QqSAhsMDgTVDODQmwg7GBkBl8JDBSrz4QXuzCMKF0UpC6h83wk61jUEbLIlBK2F2wRGQiMEnUaVAhDYAQhNoj8HOKN3AyEAfQJZftkFvYxPCjJesP2HfXkE8+Og7
lpc_rms=-35.13
pitch_keycenter=e4
sample=SoloCello_pizzicato_MF_E4_RR3.opus
volume=-6.0
</region>

<region>
hikey=e3
hivel=127
lokey=d#3
lovel=1
lpc=3xeGQ8Z9JcQstdlD3PbdQSba/0DfWbDCbTJdwvBW0kEdPp5CrSqEwcGiOsAFVKTB5k65wEgKJMKdljpC17BDQiA018F2TkjCPESSQUTGm0HfUtbBJwcRQgeassFM0odA
lpc_rms=-30.46
pitch_keycenter=e3
sample=SoloCello_pizzicato_MF_E3_RR3.opus
volume=-6.0
</region>

<region>
hikey=e2
hivel=127
lokey=d#2
lovel=1
lpc=8TuLQyg4I8TWOrxDcToQQjBKjUIbAvzC4iC7wMj0mMCHRR9CusAtwagqB0EB/FW/YyRnwC9VmMGMxUdBnDBCwY3OtkFhL43Bx9sSQtHDqsHV4ZXB3sZ/QVd1isFp8lZB
lpc_rms=-35.53
offset=16499
pitch_keycenter=e2
sample=SoloCello_pizzicato_MF_E2_RR3.opus
volume=-6.0
</region>

<region>
hikey=d5
hivel=127
lokey=c#5
lovel=1
lpc=JG5yQltTEcPJRtlCVq30wcXQ0EEQI8jB1w+iQW7g68FQXARBGRsCQT0HAEFETIPBml3LQcMhBMJRw15Bo37DwGrxDkGoJftATQO2QJx61MGgFelA71cEwHeSS0FcYdTA
lpc_rms=-35.77
pitch_keycenter=d5
sample=SoloCello_pizzicato_MF_D5_RR3.opus
volume=-6.0
</region>

<region>
hikey=d4
hivel=127
lokey=c#4
lovel=1
lpc=+wiIQsaRGMMdL8tCEH95wWGeWUH3qPXB7KLLQV1CnsFYb5pBdxMtwbrMkD+CCno+/1E/wJiujEBPLNM/3YC/wONrnL+7t+lAlALTP2DG2cBTiwhAGHNAQDNlN8BQsZ8+
lpc_rms=-45.11
pitch_keycenter=d4
sample=SoloCello_pizzicato_MF_D4_RR3.opus
volume=-6.0
</region>

<region>
hikey=d3
hivel=127
lokey=c#3
lovel=1
lpc=1cWNQ71zKsQ/UNdDyVCjQVPVp0GeVZ3C2WVHwm+PR0JjyR5C3qJNwtZrzEHJytO/QRH6PSotAsI19wdCRMtXwXo2NEHFiHvByVzgQTcxwsHLZbG/uOG1QRnx9MEO3WxB
lpc_rms=-35.96
pitch_keycenter=d3
sample=SoloCello_pizzicato_MF_D3_RR3.opus
volume=-6.0
</region>

<region>
hikey=d2
hivel=127
lokey=c#2
lovel=1
lpc=pUxdQz/zAMQTB4hDNguNQipqKEIKDXHCUBuswlF8hkFqryBCuc5SQRgqIEDLyiNAsxvowczQEMHiR3lBE/VbQTIPJsHEghjB/PTHQXbggcDMVJDBi7HAvWHSjkCECyRA
lpc_rms=-37.60
offset=13069
pitch_keycenter=d2
sample=SoloCello_pizzicato_MF_D2_RR3.opus
volume=-6.0
</region>

<region>
hikey=c5
hivel=127
lokey=b4
lovel=1
lpc=JuIrQgHqvsLkNmdCmwEXwCASJkGrM5rB0rWkQHdfv8C6ck5B+IZDwRh5yEEgIAPCqxxyQT68t8CW1YBB1+RIwbwaIUCisBHBJH3rQP0t2MDBddNBVr3MwZ83nUCq3b8/
lpc_rms=-39.03
pitch_keycenter=c5
sample=SoloCello_pizzicato_MF_C5_RR3.opus
volume=-6.0
</region>

<region>
hikey=c4
hivel=127
lokey=b3
lovel=1
lpc=7l/7QgsLnMOWPn9Dl/Jowjx1LcFiuMvAAkGWP1p4Vz8GI4dBPYGTwWe8IsFWTAZCdWgiQBeaJMJ/hb9BGh8yQe15yMG5YTVBOSs5QPUSVEFjjfnBnvIgQV4d+kBfq/m/
lpc_rms=-35.89
pitch_keycenter=c4
sample=SoloCello_pizzicato_MF_C4_RR3.opus
volume=-6.0
</region>

<region>
hikey=c3
hivel=127
lokey=b2
lovel=1
lpc=/p98Q7yuD8Qcup5Dno9eQp1GrkGfsafC6/PZwVm+KEElaFlC/qnjwXJLBkGhvaW/l0w9QP9YjcEbB0VBUcaRwe9/Q0HmZYNAwX7HQR9i0cHndKxASwIjwR35zsD2+zxB
lpc_rms=-37.84
offset=7233
pitch_keycenter=c3
sample=SoloCello_pizzicato_MF_C3_RR3.opus
volume=-6.0
</region>

<region>
hivel=127
key=c2
lovel=1
lpc=PjSlQ9z8JMTuC1xD7BjoQuxMhELMGb7B7Okawh6dcMGaF1XBNlu3PzMLzEHYohXBQSiLQbSyKcHacxRBvLZtwXB2CcCOm27BjPcaQVol+cB0OPRAmV0JQd6YcUF4x4PB
lpc_rms=-33.26
sample=SoloCello_pizzicato_MF_C2_RR3.opus
volume=-6.0
</region>

<region>
hikey=a#4
hivel=127
lokey=a4
lovel=1
lpc=Bh8iQnIgv8Iq+4BClmSkwAOXQ0HPserBGSqIQQTzycCHnPE/c9QswOza60B9O58/NYYCwUVhHsBh5yZBe8pCwd5NBEGZRhq+5w3OP4DMaT6lE3bA1hGZwMcBEUG7OkvA
lpc_rms=-38.06
pitch_keycenter=a#4
sample=SoloCello_pizzicato_MF_A#4_RR3.opus
volume=-6.0
</region>

<region>
hikey=a#3
hivel=127
lokey=a3
lovel=1
lpc=VBeCQ2bBE8QQeLxDF9oXQWZwAsKsbsbBURArwpP1dUJUtIbB978AwKOQTEHBM4DBfJ2HwNrfu0C7z15BJHScwZ2goUGRdT3CroJDQhT5o0HFiA7C7F0Hwm9Vg0LVO9/B
lpc_rms=-31.50
pitch_keycenter=a#3
sample=SoloCello_pizzicato_MF_A#3_RR3.opus
volume=-6.0
</region>

<region>
hikey=a#2
hivel=127
lokey=a2
lovel=1
lpc=ncidQ9luPMQ69ddDx3euQofw3UG6i+rC7tLLwVVpR0HiC8dBM/SewQ68xkHDaGDBCZwcQlzFCcLQpmZBfWX1wYJRSUBmsdBA13nQQTvUBMLpvdxBTUxnvyCH1cEyEm9B
lpc_rms=-35.86
pitch_keycenter=a#2
sample=SoloCello_pizzicato_MF_A#2_RR3.opus
volume=-6.0
</region>
</group>

<group>
group_label=RR4_85-127
lpc_hicc1=127
lpc_locc1=85
seq_length=4
seq_position=4

<region>
hikey=g#4
hivel=127
lokey=g4
lovel=1
lpc=NLLEQkuCksOvTp1DPK4Dw1pOv0GdhCzCQCFaQihv9MEjjj5AandxQQ8IucGyxI5BPCCywLROBkHA65vBNemNQUJnd8HcyaZBBS70wOq4gsHtJ6hBoPcKwWy/S8C8RHJA
lpc_rms=-26.21
pitch_keycenter=g#4
sample=SoloCello_pizzicato_FF_G#4_RR4.opus
</region>

<region>
hikey=g#3
hivel=127
lokey=g3
lovel=1
lpc=33A+Q0y6/8OO4NBDdPCvwlLDiEIMZ4PC3jJZwu0X+sF9VehCVQURwhqT60F1xDHCItYGvQ3wr8FeazlCHDsHvyRH+z+JgvjBka/NwMQ/+kG97xFBdh2pwfhxFsHWejZB
lpc_rms=-28.29
pitch_keycenter=g#3
sample=SoloCello_pizzicato_FF_G#3_RR4.opus
</region>

<region>
hikey=g#2
hivel=127
lokey=g2
lovel=1
lpc=jDi1Qwq1e8SQG0pEy/SOwqw55EJyWL/Dt0YrQ0k1S8I5p+ZCmt+2wpteykI6KK7CfPgGwebZIkJXqxvAK5M6whwBOEJtowjCRxmJQmtXh8IqEslBwFfQv7taxMCN2IxA
lpc_rms=-26.40
pitch_keycenter=g#2
sample=SoloCello_pizzicato_FF_G#2_RR4.opus
</region>

<region>
hikey=f#4
hivel=127
lokey=f4
lovel=1
lpc=dOSQQs21W8N2LWZDgGSDwkoussEfcArCz2iIQplQCMIdjs9B0rNXwr+VXkKZzA/Cc18UQpIEP8LUiQNCiVYTwDJCRsFSLA5B1y6IQDm3kcGqVZlBafyowEfLr8Dfz2RA
lpc_rms=-30.66
pitch_keycenter=f#4
sample=SoloCello_pizzicato_FF_F#4_RR4.opus
</region>

<region>
hikey=f#3
hivel=127
lokey=f3
lovel=1
lpc=4fvlQvRLhcPh9ClDu9EjwcATY0HaRpnBZjbgQMYyEsL4Yh9Bd3cIQuD34MBGPAfBA5iTwaA6oUH9YoJAViD0wPB+S8GH6qhBZtKtQOQMuMGRxT9Bvph2wevxkEGTbbLA
lpc_rms=-27.44
pitch_keycenter=f#3
sample=SoloCello_pizzicato_FF_F#3_RR4.opus
</region>

<region>
hikey=f#2
hivel=127
lokey=f2
lovel=1
lpc=H9hZQwyTEMTSGdZDb4NIQlfJ88IJhupAX3LDwtMAHkM9V7PCy2MMQm1VDULx3oDCRrQfQFfVXEH6j3FBEG/zwDpiM0C0/YPBQdB6QOfbsMCdNghCSxXXwZxF7D+PVjRA
lpc_rms=-28.42
pitch_keycenter=f#2
sample=SoloCello_pizzicato_FF_F#2_RR4.opus
</region>

<region>
end=50919
hikey=B6
hivel=127
lokey=d#5
lovel=1
lpc=oFzeQWh9ssIO8/dCDKfOwhsEjkLkU1jCNrInQn7n/MEY8LpBVkpBwbV3ukB4qkbBrL2XQSrnbMGcz1lBH2mewRJZhUHKrl3AuswfwIn+VMBDhVxBhQaVwZrjR0Eap1jA
lpc_rms=-37.62
offset=2795
pitch_keycenter=E5
sample=SoloCello_pizzicato_FF_E5_RR4.opus
</region>

<region>
hikey=e4
hivel=127
lokey=d#4
lovel=1
lpc=qjvDQpKhi8OrQotDvWu/wuMVyUGilrPCsFHNQgLeRMI7jWlB5NANvQiFbcFOH55BzRRWwRbl2L8fhzbAaX8UQr/yIMIHWOE/62lVQUjMtEB+KVlAkXMowoFQMkI5dGTB
lpc_rms=-29.26
pitch_keycenter=e4
sample=SoloCello_pizzicato_FF_E4_RR4.opus
</region>

<region>
hikey=e3
hivel=127
lokey=d#3
lovel=1
lpc=kK3vQpI6k8Mbb3FDzEOywnYoQkKkyTTClmcGQglK+cHL0gNC+FYmwoqHfEIE1pvCrTKfQphyksIEUF9CCQ7mwXK5lEC+2CtAP7zsQGglXsGMhQZBwfoTwcKSMkHFS4zA
lpc_rms=-23.11
pitch_keycenter=e3
sample=SoloCello_pizzicato_FF_E3_RR4.opus
</region>

<region>
hikey=e2
hivel=127
lokey=d#2
lovel=1
lpc=7wM/Q4HS3cMNA35DVC1OQDPXyEJyXuDCSvO6waoGq0F/zIs+tGCiQBHmL0Er3xBBym2ywWfCLkHbP2rAh0L+QB5b88GwREpBm2pSQVB7RUGYaebAVKeywQlIDEHALIZA
lpc_rms=-31.62
pitch_keycenter=e2
sample=SoloCello_pizzicato_FF_E2_RR4.opus
</region>

<region>
hikey=d5
hivel=127
lokey=c#5
lovel=1
lpc=zeFUQplOKMNd6ltD9kgiw2Hfr0Kkw0PCoOcXQqcpJcKyBylCRLEAwjuJmUGsqePAzYEQwZBW30HIDyzCypo7QjscI8JcasxBPHo3QKEMs8F/fuZBRl4Vwr8M80HRchPB
lpc_rms=-30.29
pitch_keycenter=d5
sample=SoloCello_pizzicato_FF_D5_RR4.opus
</region>

<region>
hikey=d4
hivel=127
lokey=c#4
lovel=1
lpc=zlG/QqtsocMFkcxDLK5Pw/7xdEGa3A3C5wjGQgKmisJfydZBEI46wgKzq0KEU7XCHLiVQiKGfsJs0SdCIhoIwbEyPMGFnGJB1KcWQA+Z1MHf4aVBqZBFQZ4Ys8FVE/JA
lpc_rms=-31.86
pitch_keycenter=d4
sample=SoloCello_pizzicato_FF_D4_RR4.opus
</region>

<region>
hikey=d3
hivel=127
lokey=c#3
lovel=1
lpc=E4OEQ6uXU8QV/3hEQk8BxIxQIENR3QLDU2a/Qtd/sMGV+xZBW5wwwrTJtkIdF+XCun+5QlNEVcKruQNCBx4wQdPglsInKYJCvkwJwrKfPULHyRvB6z9Bwgo7BELkRl/A
lpc_rms=-28.04
pitch_keycenter=d3
sample=SoloCello_pizzicato_FF_D3_RR4.opus
</region>

<region>
hikey=d2
hivel=127
lokey=c#2
lovel=1
lpc=kJCGQ8/XMMRu4/dDMQhfQqdtW8KEdtPCyiZdQp/4KEHibY3CEfkfQqrEzEHhLw5CUqK9wgJPhkJiwLnB6uiLQCTx40A+Ph/CbYoDQk5nF0HRuT1A0+0CwvyLpkEiizXA
lpc_rms=-31.05
pitch_keycenter=d2
sample=SoloCello_pizzicato_FF_D2_RR4.opus
</region>

<region>
hikey=c5
hivel=127
lokey=b4
lovel=1
lpc=2R2BQjD0UMN4MIlDgW1Cw6GkvEIT/jLCVV26QVhYBMH0+MjAYUx5QVjoS8FYbmnA11iSQXZ+bcFST4FBEGcZwh+0V0ILfGrCiaiHQpywcsKkYg5C3Eirwdl6aEFtu43A
lpc_rms=-28.72
pitch_keycenter=c5
sample=SoloCello_pizzicato_FF_C5_RR4.opus
</region>

<region>
hikey=c4
hivel=127
lokey=b3
lovel=1
lpc=t/zqQrZFvMOo2NlD8Y4/wy3OlEGFT8jBxxk+QanVXUH5Z3lBtpAIwvybvUGwjdfBp30AQtRwqMGsVo5BhzDmwZPJ2UEDY4TB4eb9QVDsZcIj6F5CRrEowitc+kEflEPB
lpc_rms=-27.80
pitch_keycenter=c4
sample=SoloCello_pizzicato_FF_C4_RR4.opus
</region>

<region>
hikey=c3
hivel=127
lokey=b2
lovel=1
lpc=r217Q8dgM8TWdCdEupM2w1nILULfDQvDMaSRQh3WI0FroArCLtzHQYmOaUIA5onC1Hgbwe2TJ8HxPaRCdlEswi6hJcKhpLFBu7A/Qhh4TcKRJbBA0jUrQnXdWMLZZ6xB
lpc_rms=-29.56
pitch_keycenter=c3
sample=SoloCello_pizzicato_FF_C3_RR4.opus
</region>

<region>
hivel=127
key=c2
lovel=1
lpc=LCiRQwcSJMRRv6JDcnO3QojNAkLkrF7CAMXbwd/dusHtyDHARJRKQLsVBUIT/Ts+EPhJwALtjUACbSbBiCWAwNFQv8BLIcc/cNOEQLQQ5EDtTdxAccXMwZWJWEG5pf8+
lpc_rms=-29.81
sample=SoloCello_pizzicato_FF_C2_RR4.opus
</region>

<region>
hikey=a#4
hivel=127
lokey=a4
lovel=1
lpc=3GwsQmeJB8OkYSNDQrimwojtD0E1murApdHoQZTgBcI3FrZBCcA5wePJnEGzGg3CzRH1Qd1mU8HQ2h1Aks6DwKr7jkE0ZAfCbcIGQkiZP8EoXxLBXgdeQdBNFcFWrFBA
lpc_rms=-36.40
pitch_keycenter=a#4
sample=SoloCello_pizzicato_FF_A#4_RR4.opus
</region>

<region>
hikey=a#3
hivel=127
lokey=a3
lovel=1
lpc=GwdfQ7JvBMSEJYtDmYz4QklDqkCMZqnCrtkUw2BRHkNSfBHCp711QnLlrsKRpBhCC7clQj5Xg8L6wjDBct+KQs31V8JeTV9B6zmqQKpcC0KcZgTCcLB5wkemtkItc/jB
lpc_rms=-27.65
pitch_keycenter=a#3
sample=SoloCello_pizzicato_FF_A#3_RR4.opus
</region>

<region>
hikey=a#2
hivel=127
lokey=a2
lovel=1
lpc=tCTDQypelsSgkKBEYCADxBFsT0P9D63D5mlPQwSvgL/srFvB7i8xQpOqjMKGi2FB7JDmQFYLyUH/e0PCsUZQQifyjML5rqlCpqgGwQfdvsLgepdCXTD+QR8Yi8LZmNZB
lpc_rms=-24.93
pitch_keycenter=a#2
sample=SoloCello_pizzicato_FF_A#2_RR4.opus
</region>
</group>

<group>
group_label=RR4_0-42
lpc_hicc1=42
lpc_locc1=0
seq_length=4
seq_position=4

<region>
hikey=g#4
hivel=127
lokey=g4
lovel=1
lpc=iYjlQRmKYMIpRA9CtEtswURgnUFN1KvBh+UsQVe05r4RxFRAB8QnwXrVo0Dk0A1AQTcUwPQx677FGmpAZ95Rv49Kk8Ab17NAla6zv9A/hcBJXqVAe7ggwCUgkL4g0cs/
lpc_rms=-61.73
offset=13036
pitch_keycenter=g#4
sample=SoloCello_pizzicato_PP_G#4_RR4.opus
volume=6.0
</region>

<region>
hikey=g#3
hivel=127
lokey=g3
lovel=1
lpc=J1U4QkLCscLR0BVCk4QcQZ1ErT7USCPABZ7gvvJ708CYrahAe/CbPzGjuT6ZorTAIG+VQATCIkCDiJrAgs0Yv6EoMkC3LV3AWQKlQBIozMBG3AJB5Qg7wIBrrsB2gotA
lpc_rms=-59.18
offset=9920
pitch_keycenter=g#3
sample=SoloCello_pizzicato_PP_G#3_RR4.opus
volume=6.0
</region>

<region>
hikey=g#2
hivel=127
lokey=g2
lovel=1
lpc=eDpDQrc3oMLOS/JBA8RVwMwVyUBhigfAb/sLQNPapMAsh3zA33OIQPtenkDOd9m/B/GBwOAEdEAJRQJAzbL1P2C3fMBfpfu/2NIbQO2omj4+FU8/z1GjwLFCO0AjihU/
lpc_rms=-59.76
offset=7354
pitch_keycenter=g#2
sample=SoloCello_pizzicato_PP_G#2_RR4.opus
volume=6.0
</region>

<region>
hikey=f#4
hivel=127
lokey=f4
lovel=1
lpc=XdPRQQcBW8Kf1RFCqM7LwJ+qFUARrfjAMSjLP1xUwkD488O+dbGQwBzFlL61ckRAqmRtPmE9nL9q7gDA9TrFPys8vz9QCcU+0h4awK3LHsAxYZVASFdFQESbCsG2IZxA
lpc_rms=-62.09
offset=15273
pitch_keycenter=f#4
sample=SoloCello_pizzicato_PP_F#4_RR4.opus
volume=6.0
</region>

<region>
hikey=f#3
hivel=127
lokey=f3
lovel=1
lpc=pS7gQX+2ccLEUBtC+6eNwE9jmT8MHMjA2wDOQOK8rMCi4QBAMYEVvyyC9b70S08/n3C6Po6HVkB9rM3ATl3bP0pZFj8Mf+E/rNszQD6TmMBt5T8+/45UQCLfVcBFjGM/
lpc_rms=-67.31
offset=15682
pitch_keycenter=f#3
sample=SoloCello_pizzicato_PP_F#3_RR4.opus
volume=6.0
</region>

<region>
hikey=f#2
hivel=127
lokey=f2
lovel=1
lpc=/8eAQrAfxcIROqpBTpEcQGcSUkFkwtw+E5uqvxAqusBNW5DAELrEQIFlQkBRm4q+fhCoP9cjBj+ndJbAL7oPP2rAeb+nzBtAZzCGQBNXMcAUy0NAs+uev+67NcAqmF0+
lpc_rms=-58.88
offset=12294
pitch_keycenter=f#2
sample=SoloCello_pizzicato_PP_F#2_RR4.opus
volume=6.0
</region>

<region>
hikey=B6
hivel=127
lokey=d#5
lovel=1
lpc=nFldQZhb9MGpkcJBZBcVwWZHkEAkDbTA3p2YQInCD8B++wtAmbcvwEbc1D/J+d+/eM0bQPd09b6KF8i/a/53P8ibNr6pwzs/qHlXvnwpgr6rp7S+76GMP0dq677MX9q+
lpc_rms=-66.91
offset=12241
pitch_keycenter=E5
sample=SoloCello_pizzicato_PP_E5_RR4.opus
volume=6.0
</region>

<region>
hikey=e4
hivel=127
lokey=d#4
lovel=1
lpc=+zXvQd8Cj8LmYG9CjMOcwWsOkEBmlYnAWsU/wPXdpkDrWBRAbZhywKU8eb96CB5AR80JwIC4r0C/3tvAlR9nQHthC0Cxs43A/VMtPyo0iMCUOB5Bvr2svyPYCsHFyq5A
lpc_rms=-63.96
offset=11230
pitch_keycenter=e4
sample=SoloCello_pizzicato_PP_E4_RR4.opus
volume=6.0
</region>

<region>
hikey=e3
hivel=127
lokey=d#3
lovel=1
lpc=fneHQu4L9MIfcEFC5YzxQPIOXEDqZNTAH3duwLgQL0BEa7JAYnmmvyOVNsDJvlw/2sc0v/z9Sz9cMRe/N6vNP2FK8b/BpsI/TXQRQAG8esAVVg9A5gwjv6n14b9oAto/
lpc_rms=-56.78
pitch_keycenter=e3
sample=SoloCello_pizzicato_PP_E3_RR4.opus
volume=6.0
</region>

<region>
hikey=e2
hivel=127
lokey=d#2
lovel=1
lpc=3zgeQpIBbsIUHEFBVt3oP5El90CglK0/Hgykv4kDAMDQQDnAHDVBPzWVHL8wQIY/2z4MQGs8RkAA5DPAIWWlvwPZj77k8bw/uc+rPwPfVr+opxI/6bT1vyZvBL+eM5Y/
lpc_rms=-63.58
offset=13126
pitch_keycenter=e2
sample=SoloCello_pizzicato_PP_E2_RR4.opus
volume=6.0
</region>

<region>
hikey=d5
hivel=127
lokey=c#5
lovel=1
lpc=gLKSQTidIsLdlt5B1IGcwLp4YUCmCt/AtqYEQa/mJsFOUwRBXfp7wKvKbEDl5OrAE8rrQOaQpcCv3PtAbPkTwZbsR0BHrLtA+1SkwN2+lMBSmPZAYjrZvwoBzr9PCCg/
lpc_rms=-64.82
offset=12359
pitch_keycenter=d5
sample=SoloCello_pizzicato_PP_D5_RR4.opus
volume=6.0
</region>

<region>
hikey=d4
hivel=127
lokey=c#4
lovel=1
lpc=KKg6QiIzvMK6p0tC+L5tQPDjAr+KLN7A4cHXv62Fyb6rGqc/Rt+9P1w7nD9U6m7Aoau/v/hTUECrkvg/PZSdPwKfCsBBmBm/gYbvv9VLAUCzrkRARSK3P8CzDsGxT6BA
lpc_rms=-58.65
offset=8995
pitch_keycenter=d4
sample=SoloCello_pizzicato_PP_D4_RR4.opus
volume=6.0
</region>

<region>
hikey=d3
hivel=127
lokey=c#3
lovel=1
lpc=F7RWQm3KycI9uj1CuDOHv2y1lkDWoT/ARQWZP7mGqsBN9zHATb+AQIBx4EBmpNLAIDEqwFWji0DpRLU+F89OQBRvY8Cori+/yvSzQFvUT8DmJHLABB6BwJSZIEG1H3PA
lpc_rms=-56.90
pitch_keycenter=d3
sample=SoloCello_pizzicato_PP_D3_RR4.opus
volume=6.0
</region>

<region>
hikey=d2
hivel=127
lokey=c#2
lovel=1
lpc=8zftQQHNJMJocuRAfll3vaVfhkD3iM4+ZuNIP90X2b9bRNO/lnVyPmElqb3Vg30/JooGP/LGhD/5idW+VSgeve59ST+1VjQ/ZRphP2r2rr7v04U860KMvwW2CMDQXMQ/
lpc_rms=-66.33
offset=13539
pitch_keycenter=d2
sample=SoloCello_pizzicato_PP_D2_RR4.opus
volume=6.0
</region>

<region>
hikey=c5
hivel=127
lokey=b4
lovel=1
lpc=8fy1QT9GSMIVXhtCOEBlwecw/0AkFh3BoY4AQfl+O8BZESY/tKMFv9Q9p7sl9Nm/jiWoP/X2ZT4Tzw9AslEkwISagL+NP7tAIpOxwLXZFMDab+FA1vNUwHz/nT8gXnS/
lpc_rms=-66.74
offset=16558
pitch_keycenter=c5
sample=SoloCello_pizzicato_PP_C5_RR4.opus
volume=6.0
</region>

<region>
hikey=c4
hivel=127
lokey=b3
lovel=1
lpc=wOWyQZATHMKid2hBWb4cQMwRZEDm+U7AUUCnvxPxqzwdKuy9m+erPrCPOD/ZMYO+Im6gPWSfLD//Je++U4w5PwW5I7/Ygee9xWA6P7YnIb9RmPK+7WcCvzTOjr/ALA1A
lpc_rms=-65.81
offset=13096
pitch_keycenter=c4
sample=SoloCello_pizzicato_PP_C4_RR4.opus
volume=6.0
</region>

<region>
hikey=c3
hivel=127
lokey=b2
lovel=1
lpc=zSQ5Qn2srcKJBTVCdqwSwfhp9UCUnV7AD2g1vkcNJT8MOua/1/jEv3W4ykDUBtLAfrb3PxDscEDtFrjAUV1lQDuKAcCG3+U/mWK5QMi+mcBthM++c9zRvb0HJr7NjOy9
lpc_rms=-61.84
offset=14261
pitch_keycenter=c3
sample=SoloCello_pizzicato_PP_C3_RR4.opus
volume=6.0
</region>

<region>
hivel=127
key=c2
lovel=1
lpc=X3qwQl9OMMPp2bVCI1oewSKhwEFaU23BebG3wKvX5r+uQAdATCdPQFYAlcCkmaNAC4aJQMIuU0B1tDjBtLfbP/ff3ryKJpc/J1pkQK5DFcDi+2xAHH5jwEsD6sDnG9hA
lpc_rms=-59.36
offset=15748
sample=SoloCello_pizzicato_PP_C2_RR4.opus
volume=6.0
</region>

<region>
hikey=a#4
hivel=127
lokey=a4
lovel=1
lpc=Ec82QWNPncHyPx5BDZkTwNHcPUBmryvAvMfTPhdXhr9eOlM/7dqsPrEp3D4Rbw09gzHlv1r3L0BGOEe/v9RWv+wFBD8+F3Q8JDLEvoZ4uz48g0E/q0NMv8B5uT7wP4a+
lpc_rms=-69.74
offset=9726
pitch_keycenter=a#4
sample=SoloCello_pizzicato_PP_A#4_RR4.opus
volume=6.0
</region>

<region>
hikey=a#3
hivel=127
lokey=a3
lovel=1
lpc=BWY3QXK3rMHH9xZBTpMYQAYfRT6C1Ui/FcTBvwty3b1oqaY+2uWjPqeICj8+v8O+HYqVPvTfDb/8S/i+tCISP3XcGj+7eGE+HHQxv35vP78e10Y/DmUEvhW7Hr9o/yU/
lpc_rms=-71.55
offset=16505
pitch_keycenter=a#3
sample=SoloCello_pizzicato_PP_A#3_RR4.opus
volume=6.0
</region>

<region>
hikey=a#2
hivel=127
lokey=a2
lovel=1
lpc=GQs0QhLymMI0R+VBEOMrP3kUrUDFulbA/quGv/LHLb+ZXxLA7uLwP68QdD9rLNo/idqavwePOj9mIem+vnWbP1IVOD63yGA/KgTuvbjZbr3CMVs+x3jjv02uCcCPrhBA
lpc_rms=-61.02
offset=12485
pitch_keycenter=a#2
sample=SoloCello_pizzicato_PP_A#2_RR4.opus
volume=6.0
</region>
</group>

<group>
group_label=RR4_43-84
lpc_hicc1=84
lpc_locc1=43
seq_length=4
seq_position=4

<region>
hikey=g#4
hivel=127
lokey=g4
lovel=1
lpc=u3y3QlNqLcP3NZtCcDQgPlsqLT4qgIbA5fUUQoCJ6cEl9ZrBc/SuQbfYP0H6ROfBiwQHQnVBvcGeq65AayIYQAOO+b5wl3rBTCp+QRIi3UBVK1DBwV8ywP7lQEETsqfA
lpc_rms=-36.56
pitch_keycenter=g#4
sample=SoloCello_pizzicato_MF_G#4_RR4.opus
volume=-6.0
</region>

<region>
hikey=g#3
hivel=127
lokey=g3
lovel=1
lpc=RUo+Q2xl98N/rNJDm6EJw/Y6w0KwSvTCv9KeQLdhXELbn/JBg8GswnEgQULKB33AKeqUQfsyDMIwxbVAPHRUQRN77MBokGBBzrmOwR4ZcsClZ51BBi+MQZ0db8IYDQJC
lpc_rms=-34.69
pitch_keycenter=g#3
sample=SoloCello_pizzicato_MF_G#3_RR4.opus
volume=-6.0
</region>

<region>
hikey=g#2
hivel=127
lokey=g2
lovel=1
lpc=iWUGRAVYpMRUBUBExeglQymReUIVoFrDV+KLwt+BzME2D3FCMscMQgmGV0I+8sjAkJh9wV2Zo8Jb6BdC4Ih8QGQnkEE3LLzBGMJHQrhSI8IzzBnBeDulP4stlUGN7MXA
lpc_rms=-30.58
pitch_keycenter=g#2
sample=SoloCello_pizzicato_MF_G#2_RR4.opus
volume=-6.0
</region>

<region>
hikey=f#4
hivel=127
lokey=f4
lovel=1
lpc=jCKSQgN1CcM5xYBCNUAMwZuz50HQrO/B5CSZQAuhWcAGbYJB53q5wC9gM0HsszXB5uYfweJkJUDPPo9A151bP/aFCEBZUwNAPQsOQE5BSsHJbyFBedgPwamLUEH8AN/A
lpc_rms=-40.06
pitch_keycenter=f#4
sample=SoloCello_pizzicato_MF_F#4_RR4.opus
volume=-6.0
</region>

<region>
hikey=f#3
hivel=127
lokey=f3
lovel=1
lpc=7EDhQlwddcMAYgZDd+GJQQIyJ0FqMwjCq2+Swc9+IUH3uclBi+LawP//usCaAp7AhT2tQFCepsAVjjZBRxSev7JYKMDCVs2/ZQ9wwKWv3z/XhjJBNSFFwepZD8FHVThB
lpc_rms=-39.13
offset=125
pitch_keycenter=f#3
sample=SoloCello_pizzicato_MF_F#3_RR4.opus
volume=-6.0
</region>

<region>
hikey=f#2
hivel=127
lokey=f2
lovel=1
lpc=nTaKQ7M5K8RhfuJDSRnUP3VGbUIhn/jCNPxPwWu8YEDRs95B1q8FQTA3mEE5fh7C3jwjQh8AgMLIfyhCndtoQHGlg8Gv9WvAJiaIQbiNOcD0hapAFGNKwc3cmMB/ngdB
lpc_rms=-34.21
pitch_keycenter=f#2
sample=SoloCello_pizzicato_MF_F#2_RR4.opus
volume=-6.0
</region>

<region>
hikey=B6
hivel=127
lokey=d#5
lovel=1
lpc=O3DLQUiSYcJlFyJCr1pQwbu4R0FB5m/BSF0eQcbSKcHGzkhBVwcQwV6TyUDmNJXA6v+AQE62nMCjOlRAUQyBPqj5y74Bc8M/MzkMvW4gesCHSES/b3AoQAH4AUCh7ALA
lpc_rms=-47.58
pitch_keycenter=E5
sample=SoloCello_pizzicato_MF_E5_RR4.opus
volume=-6.0
</region>

<region>
hikey=e4
hivel=127
lokey=d#4
lovel=1
lpc=RV7HQjBNTcMJB+NCJjBNP+7pmkHXEoTCCroqQhSwL8HxuMdBIGkswRbEy8GMPY5B5XjCQDwyNsG3YSNBsalawNQJrMAj3/1ACnUNQCXoJ8C9im7BuwkFQX6AP0GA0gHB
lpc_rms=-38.69
pitch_keycenter=e4
sample=SoloCello_pizzicato_MF_E4_RR4.opus
volume=-6.0
</region>

<region>
hikey=e3
hivel=127
lokey=d#3
lovel=1
lpc=JJmWQ4YGIMSU74NDcGe5Qhh7lEJVdRTCIOd2wnK27cGvIJBB0IpIQGZrKEJXUo/BipZGQSdS6cG2zW1AHS17wXCYRkFwNl5AISviQTVtRz+ZeNPB86X4wHtB2MDi2YNB
lpc_rms=-32.23
pitch_keycenter=e3
sample=SoloCello_pizzicato_MF_E3_RR4.opus
volume=-6.0
</region>

<region>
hikey=e2
hivel=127
lokey=d#2
lovel=1
lpc=wzBGQ5wryMOFdxdDW6NdQiP+K0JjrwDCZyBnwcCwMcH3MwlBBopowP+3aUF/qlHBOwAdQcjVL8GKII1Ai8VQwAyjiD+FHQa9Xy1wQapNAsEI23s9qjrBv7/Me8H9KVJB
lpc_rms=-36.13
offset=14275
pitch_keycenter=e2
sample=SoloCello_pizzicato_MF_E2_RR4.opus
volume=-6.0
</region>

<region>
hikey=d5
hivel=127
lokey=c#5
lovel=1
lpc=/ldhQhvM+8KCWIZCuAJzQTvDUkEt1zrCwhwlQhOaFsJhstdA5a4gQD5BQELbNGzCA3TDQShMYMGXpdhARaomwFE7nkElQ6nBZUGTQR7xp8HgJxxBVAnZwLbUJUHQVpXA
lpc_rms=-39.30
pitch_keycenter=d5
sample=SoloCello_pizzicato_MF_D5_RR4.opus
volume=-6.0
</region>

<region>
hikey=d4
hivel=127
lokey=c#4
lovel=1
lpc=35dKQsVD1cJuUX9CNMgEwW+lR0FK1b/BjrNxQcebVj+BpGLAn3iWwJdh+0A+4ePA52bEQL65o78bq3zAy+c6wOjI40AG1erAgeyOQbbCacFxkKtAmsHFwMx76kB4lmrA
lpc_rms=-43.44
pitch_keycenter=d4
sample=SoloCello_pizzicato_MF_D4_RR4.opus
volume=-6.0
</region>

<region>
hikey=d3
hivel=127
lokey=c#3
lovel=1
lpc=AddnQwaCDsSnFcBDz4QnwXlbAUKWaKDC3K8LwH1RKMBQyrdBPu+0wVa7CkI/b63BhAqDQX3sn8F9/PRAZJkawZstzUAMGxtBucJVQbj/78Fi6WrA5wwBQl6r4sHXox5B
lpc_rms=-36.17
pitch_keycenter=d3
sample=SoloCello_pizzicato_MF_D3_RR4.opus
volume=-6.0
</region>

<region>
hikey=d2
hivel=127
lokey=c#2
lovel=1
lpc=HFlRQ7gP/sOxnpxD7xAFQkLJuEEJBo7C6F6qwZZaHsDArRRBykwKQeQvCEIA9IXBNGNSwPEK7sE07OBBkZaBwd0dUkFncse/FAUHQXF/hcF6F5NANBb+QNaSMcEEDKpA
lpc_rms=-38.12
offset=11513
pitch_keycenter=d2
sample=SoloCello_pizzicato_MF_D2_RR4.opus
volume=-6.0
</region>

<region>
hikey=c5
hivel=127
lokey=b4
lovel=1
lpc=s3c9QmIE5MKbU6RC/34VwaCfGUBeVknB1mg+QG0Z/sDuHZNBb2lwwXHAo0Hxgs/B2D3FQKmYC0GaC9NAgI5Ewbzj3z1cEuu/gTRjQDNfzb/UASpBlIMtwaW1hz+2KKE/
lpc_rms=-41.53
pitch_keycenter=c5
sample=SoloCello_pizzicato_MF_C5_RR4.opus
volume=-6.0
</region>

<region>
hikey=c4
hivel=127
lokey=b3
lovel=1
lpc=4rbcQtlRccPYjRNDqjh0wHSAh0B7jNHB+SMiwCL4asBj7yJCN5gEwi9OwEAxzO1AU3f5QCa4isHT4j/BozOcQWqgMz87N89Ax6hawWCYMcAu5mNAnLhswPHsXEHx8ebA
lpc_rms=-38.37
pitch_keycenter=c4
sample=SoloCello_pizzicato_MF_C4_RR4.opus
volume=-6.0
</region>

<region>
hikey=c3
hivel=127
lokey=b2
lovel=1
lpc=tyBOQ2Xl7cPwpYlDQLUUQreQt0BwlhbCKn75wb40V79KGvhBgbjFwQRXoEHbvYrBFGjkQZDpq8EnMYBBuWmtwfh55kBHpvRAm6RPQH8SJ8FszS9AYYhdQOru0cBUk2lA
lpc_rms=-38.70
pitch_keycenter=c3
sample=SoloCello_pizzicato_MF_C3_RR4.opus
volume=-6.0
</region>

<region>
hivel=127
key=c2
lovel=1
lpc=FZygQxr+OMQOc6tD2YvyQhIwP0O7m1vDWTj7wmYTZ0K4g6dB0uGdQqx5V0D9cXfCti9LwZyVKEKOl47BkwYYwv6KeEKj/oPChYWmQnDrecIyZCJCHVxZwtSTOkJI2lvB
lpc_rms=-32.01
sample=SoloCello_pizzicato_MF_C2_RR4.opus
volume=-6.0
</region>

<region>
hikey=a#4
hivel=127
lokey=a4
lovel=1
lpc=ZmIbQta2s8KaFl9C+5kbQYrCBsE6TH/Bmy4FQeqpg0C9Ea2/aJM2P+cXlsCBD+tAP04rwDDtf8DsXNM+g14lPwI2ub+aqAVBoVfbwJZZ2D+47DG/tkcoQCPAVsBzZqE/
lpc_rms=-34.79
pitch_keycenter=a#4
sample=SoloCello_pizzicato_MF_A#4_RR4.opus
volume=-6.0
</region>

<region>
hikey=a#3
hivel=127
lokey=a3
lovel=1
lpc=iIp5Q/+MJMRnzA1Eaayvwr58x8LtirHBXYPGQt2zTMIWGe3ADtpVvjimpEFYsqrBzi8WQrDNg8Ie2XJCF70OQd8plMIigzZCIyzpQXQ0QsL7hQBBr2EgQpKsNsJsdodB
lpc_rms=-31.54
pitch_keycenter=a#3
sample=SoloCello_pizzicato_MF_A#3_RR4.opus
volume=-6.0
</region>

<region>
hikey=a#2
hivel=127
lokey=a2
lovel=1
lpc=tuhaQ3YX6MPnpkpDg4lBQjtDhkJ9aF/CVebbwcg8s0B1v4W/jFH8QIO/tMBY/gjBkjHPQTKCtMEKweRB33K1wbpwxUCVGojBszDQQZ6PiMG1uQg/b3C4QGeTB8DHd1s/
lpc_rms=-36.66
pitch_keycenter=a#2
sample=SoloCello_pizzicato_MF_A#2_RR4.opus
volume=-6.0
</region>
</group>